<svg width="96" height="100" viewBox="0 0 96 100" fill="none" xmlns="http://www.w3.org/2000/svg">
<g opacity="0.300003">
<g opacity="0.300003">
<path opacity="0.300003" d="M95.4596 96.1559C95.4596 97.8477 74.0902 99.2192 47.7298 99.2192C21.3694 99.2192 0 97.8477 0 96.1559C0 94.464 21.3694 93.0925 47.7298 93.0925C74.0902 93.0925 95.4596 94.464 95.4596 96.1559Z" fill="#000072"/>
</g>
</g>
<path d="M87.9065 92.3234C86.0123 94.5204 83.2335 95.7563 80.3318 95.7563H15.1277C12.2261 95.7563 9.44721 94.5204 7.55305 92.3234C6.50659 91.109 5.73295 89.7561 5.21264 88.372C5.21069 88.372 5.21069 88.372 5.21069 88.3701C3.57377 84.0268 4.40782 79.3657 7.0191 77.6893C11.4037 74.8704 14.7847 78.315 14.7847 78.315C15.1589 77.4358 15.6656 76.6736 16.2326 76.0206C18.3684 73.5526 21.3617 72.613 21.3617 72.613C19.7345 63.2773 23.3669 54.8188 23.3669 54.8188C23.3669 54.8188 32.3174 61.5852 47.7298 61.5852C63.1422 61.5852 72.0927 54.8188 72.0927 54.8188C72.0927 54.8188 75.7251 63.2773 74.0979 72.613C74.0979 72.613 78.8898 74.118 80.6748 78.315C80.6748 78.315 84.0558 74.8704 88.4404 77.6893C91.8838 79.9018 92.2365 87.3037 87.9065 92.3234Z" fill="#B11313"/>
<g opacity="0.300003">
<g opacity="0.300003">
<path opacity="0.300003" d="M17.3841 86.9214C17.9882 81.0712 14.7845 78.5467 14.7845 78.5467C15.1587 77.6675 15.6654 76.9053 16.2324 76.2523C21.2017 82.198 17.3841 86.9214 17.3841 86.9214Z" fill="#000072"/>
</g>
</g>
<g opacity="0.300003">
<g opacity="0.300003">
<path opacity="0.300003" d="M78.0928 86.9214C77.4887 81.0712 80.6924 78.5467 80.6924 78.5467C80.3182 77.6675 79.8115 76.9053 79.2445 76.2523C74.2752 82.198 78.0928 86.9214 78.0928 86.9214Z" fill="#000072"/>
</g>
</g>
<g opacity="0.300003">
<g opacity="0.300003">
<path opacity="0.300003" d="M78.6002 91.833C78.1359 91.7174 77.6573 91.6776 77.1817 91.7299C76.504 91.8042 75.3381 91.9197 73.628 92.0479C71.0541 92.241 68.8063 90.3062 68.6305 87.7301C68.555 86.6235 68.7206 85.7642 68.7806 85.4983C68.1084 88.3726 66.8673 91.0207 66.1105 92.4729C62.2691 92.6331 57.4034 92.7634 51.3865 92.8016C51.0619 81.1716 57.8157 70.2664 57.8157 70.2664C47.4675 78.5475 37.6605 70.2664 37.6605 70.2664C44.4888 82.3906 44.1333 92.2966 44.1333 92.2966L45.2833 92.808C38.7126 92.7804 33.4578 92.6436 29.3655 92.473C28.6087 91.0208 27.3676 88.3727 26.6954 85.4983C26.7578 85.7749 26.9344 86.6934 26.8352 87.8646C26.6216 90.3854 24.3717 92.2373 21.8499 92.0481C20.1387 91.9198 18.9723 91.8043 18.2944 91.7299C17.8187 91.6776 17.3401 91.7174 16.8758 91.833C9.45664 93.6807 5.34543 88.7671 5.21307 88.6044C5.73338 89.9885 6.50702 91.3414 7.55348 92.5559C9.44764 94.7528 12.2265 95.9888 15.1282 95.9888H47.738H80.3478C83.2495 95.9888 86.0284 94.7528 87.9225 92.5559C88.969 91.3414 89.7426 89.9885 90.2629 88.6044C90.1306 88.7671 86.0194 93.6807 78.6002 91.833Z" fill="#000072"/>
</g>
</g>
<g opacity="0.300003">
<g opacity="0.300003">
<path opacity="0.300003" d="M26.6957 85.498C26.683 85.442 26.6749 85.4113 26.6749 85.4113C26.6816 85.4403 26.6889 85.4691 26.6957 85.498Z" fill="#000072"/>
</g>
</g>
<g opacity="0.300003">
<g opacity="0.300003">
<path opacity="0.300003" d="M68.7809 85.498C68.7877 85.4691 68.7951 85.4404 68.8017 85.4114C68.8017 85.4114 68.7936 85.442 68.7809 85.498Z" fill="#000072"/>
</g>
</g>
<path d="M47.7233 95.3114H80.3334C83.069 95.3114 85.6435 94.1458 87.397 92.1132C89.6622 89.4872 90.7793 85.8509 90.3123 82.6231C90.0388 80.7333 89.2242 79.2264 88.0774 78.4889C84.1996 75.9951 81.28 78.8961 81.1577 79.0205C80.9998 79.1816 80.7721 79.2536 80.5501 79.2111C80.3284 79.1692 80.1424 79.0192 80.0541 78.8117C78.4099 74.9451 73.9415 73.504 73.8966 73.4899C73.5732 73.3884 73.3751 73.0629 73.4333 72.7289C74.7274 65.31 72.5898 58.3686 71.7713 56.0942C69.3208 57.697 60.8882 62.4928 47.7312 62.4928C34.5742 62.4928 26.1417 57.697 23.6912 56.0942C22.8727 58.3686 20.7351 65.31 22.0292 72.7289C22.0874 73.0629 21.8893 73.3884 21.5659 73.4899C21.5217 73.504 17.046 74.9605 15.4084 78.8117C15.3201 79.0192 15.134 79.1692 14.9124 79.2111C14.6908 79.2534 14.4627 79.1816 14.3047 79.0205C14.1827 78.8981 11.238 76.011 7.38504 78.4889C6.23826 79.2264 5.42365 80.7333 5.15029 82.6231C4.6833 85.8509 5.80026 89.4874 8.06545 92.1132C9.81895 94.1458 12.3935 95.3114 15.129 95.3114H47.7233ZM80.3334 96.6631H15.129C12.0003 96.6631 9.05287 95.3265 7.04257 92.9961C4.52915 90.0825 3.29168 86.0337 3.81312 82.4296C4.1474 80.1186 5.15648 78.3152 6.65446 77.3519C10.2195 75.0597 13.2276 76.5568 14.5494 77.4892C16.2261 74.4181 19.337 72.9119 20.6066 72.4032C19.1928 63.2062 22.5988 55.1289 22.7475 54.783C22.8294 54.592 22.9945 54.4496 23.1952 54.3965C23.3961 54.3432 23.6099 54.3853 23.7755 54.5106C23.863 54.5764 32.7511 61.1412 47.7312 61.1412C62.7113 61.1412 71.5995 54.5764 71.6875 54.5102C71.8533 54.3853 72.0675 54.3434 72.2677 54.3967C72.4682 54.45 72.6333 54.5922 72.7151 54.783C72.8637 55.1289 76.2697 63.2062 74.8558 72.4032C76.1255 72.9119 79.2364 74.4181 80.913 77.4892C82.2347 76.5568 85.2426 75.0589 88.808 77.3519C90.306 78.3152 91.3151 80.1184 91.6495 82.4296C92.1709 86.0335 90.9334 90.0825 88.4199 92.9961C86.4096 95.3265 83.4621 96.6631 80.3334 96.6631Z" fill="#000072"/>
<path d="M15.1777 77.9965C15.2518 78.0471 15.2864 78.075 15.3374 78.1127C15.3859 78.1486 15.4249 78.1829 15.4691 78.2184C15.5569 78.2893 15.6311 78.364 15.7106 78.4377C15.7919 78.5102 15.859 78.5901 15.9321 78.6674C16.0056 78.7443 16.0747 78.8238 16.1395 78.9055C16.4086 79.2284 16.635 79.5763 16.8368 79.9354C17.2412 80.6539 17.51 81.4284 17.6968 82.2082C17.8789 82.9914 17.9462 83.7865 17.9463 84.5716C17.9477 84.964 17.9039 85.3551 17.8772 85.7417C17.819 86.128 17.7554 86.511 17.6746 86.8886C17.6591 86.9607 17.5882 87.0066 17.5162 86.9912C17.4615 86.9794 17.4219 86.9356 17.4127 86.8838L17.4112 86.8744C17.345 86.495 17.3038 86.1211 17.254 85.7506L17.1572 85.1991C17.1218 85.0167 17.1085 84.8325 17.0601 84.6536C16.9693 84.2955 16.9206 83.9334 16.8061 83.5874C16.7562 83.4132 16.7171 83.2367 16.6628 83.0654L16.4886 82.5568C16.2483 81.8856 15.9547 81.2438 15.6009 80.6505C15.5088 80.5051 15.4226 80.3546 15.3225 80.2168L15.1779 80.0054L15.0227 79.8047C14.9243 79.6662 14.8102 79.5444 14.7034 79.4195C14.6483 79.3602 14.5937 79.2958 14.5381 79.243C14.5114 79.2159 14.4829 79.1837 14.4577 79.1602C14.4352 79.1384 14.3984 79.1039 14.3959 79.0989L14.2501 78.806C14.0935 78.4914 14.2215 78.1094 14.536 77.9528C14.749 77.8467 14.9938 77.8718 15.1777 77.9965Z" fill="#000072"/>
<path d="M81.0508 79.0989C81.0483 79.104 81.0115 79.1384 80.989 79.1602C80.9638 79.1837 80.9353 79.2159 80.9086 79.243C80.853 79.2959 80.7984 79.3602 80.7433 79.4195C80.6365 79.5445 80.5224 79.6662 80.424 79.8047L80.2689 80.0055L80.1242 80.2169C80.0241 80.3546 79.9379 80.5051 79.8458 80.6505C79.4921 81.2439 79.1985 81.8857 78.9582 82.5568L78.784 83.0654C78.7296 83.2367 78.6906 83.4132 78.6406 83.5874C78.5261 83.9334 78.4775 84.2955 78.3867 84.6536C78.3382 84.8326 78.325 85.0168 78.2896 85.1991L78.1928 85.7506C78.143 86.1212 78.1018 86.4951 78.0356 86.8744L78.034 86.8837C78.0213 86.9563 77.9522 87.0048 77.8797 86.9921C77.8245 86.9825 77.7833 86.9403 77.7722 86.8887C77.6914 86.5111 77.6277 86.128 77.5695 85.7418C77.5428 85.3551 77.4991 84.964 77.5005 84.5717C77.5006 83.7866 77.5679 82.9915 77.75 82.2083C77.9368 81.4284 78.2055 80.6539 78.61 79.9354C78.8118 79.5763 79.0381 79.2285 79.3073 78.9056C79.372 78.8238 79.4412 78.7444 79.5147 78.6674C79.5877 78.5902 79.6548 78.5102 79.7362 78.4378C79.8157 78.3641 79.8898 78.2894 79.9776 78.2185C80.0218 78.1829 80.0609 78.1487 80.1093 78.1127C80.1604 78.075 80.1949 78.0471 80.269 77.9966C80.5593 77.7987 80.955 77.8737 81.1528 78.1641C81.2869 78.3608 81.2957 78.606 81.1971 78.8053L81.0508 79.0989Z" fill="#000072"/>
<path d="M22.0344 72.7656L22.0894 73.3056L22.1582 73.9096C22.1824 74.1154 22.2147 74.3219 22.2324 74.5387C22.2523 74.7548 22.264 74.9787 22.253 75.2207L22.253 75.2218C22.2513 75.2598 22.2191 75.2892 22.181 75.2875C22.1674 75.2869 22.1549 75.2824 22.1445 75.2749C21.946 75.1352 21.7752 74.9748 21.6274 74.8C21.4761 74.6264 21.3522 74.437 21.2314 74.243C21.1133 74.0474 21.0058 73.8444 20.9122 73.6315C20.8681 73.5242 20.8225 73.4162 20.7871 73.3024C20.7679 73.2463 20.7507 73.1881 20.7352 73.1286C20.7185 73.0643 20.7073 73.0172 20.6929 72.9261C20.6343 72.5573 20.8856 72.2107 21.2543 72.1522C21.6231 72.0935 21.9695 72.345 22.028 72.7139C22.0299 72.7257 22.0314 72.7375 22.0327 72.7492L22.0344 72.7656Z" fill="#000072"/>
<path d="M74.7855 72.9262C74.771 73.0172 74.7598 73.0644 74.7431 73.1286C74.7277 73.1881 74.7104 73.2462 74.6913 73.3024C74.6559 73.4163 74.6102 73.5242 74.5662 73.6316C74.4726 73.8444 74.3651 74.0475 74.247 74.243C74.1261 74.437 74.0023 74.6265 73.8509 74.8C73.7031 74.9749 73.5324 75.1352 73.3339 75.275C73.3028 75.297 73.2597 75.2895 73.2379 75.2583C73.23 75.2472 73.2259 75.2344 73.2253 75.2217L73.2253 75.2208C73.2143 74.9787 73.2261 74.7548 73.2459 74.5387C73.2637 74.3219 73.296 74.1154 73.3201 73.9096L73.3889 73.3057L73.444 72.7657L73.4454 72.7514C73.4833 72.3799 73.8151 72.1093 74.1865 72.1472C74.5579 72.1851 74.8282 72.517 74.7904 72.8886C74.7891 72.9005 74.7873 72.9145 74.7855 72.9262Z" fill="#000072"/>
<path d="M25.3124 79.4635C25.3124 79.4635 22.2198 77.0643 21.3637 72.8453C21.3637 72.8453 19.5846 71.9458 18.3549 74.3797C18.3549 74.3797 19.7734 81.8099 26.6757 85.4106C26.6757 85.4106 25.6783 81.5856 25.3124 79.4635Z" fill="#0096F2"/>
<path d="M19.0692 74.4764C19.3478 75.611 20.8478 80.792 25.6222 83.9999C25.3201 82.7738 24.9197 81.0792 24.6901 79.8249C23.9739 79.2041 21.643 76.9579 20.7866 73.3665C20.3977 73.2995 19.6976 73.3778 19.0692 74.4764ZM26.6752 86.0864C26.5685 86.0864 26.4614 86.0611 26.3629 86.0099C19.2525 82.3005 17.7513 74.8229 17.6909 74.5065C17.6629 74.3599 17.6842 74.2082 17.7516 74.0749C18.5197 72.5546 19.524 72.1236 20.2313 72.0299C21.0139 71.9254 21.6034 72.2094 21.668 72.2422C21.8526 72.3355 21.9843 72.5082 22.0254 72.7109C22.8181 76.6179 25.6979 78.9075 25.7269 78.9301C25.859 79.0335 25.9492 79.1832 25.9776 79.3486C26.3345 81.4179 27.3191 85.2021 27.329 85.24C27.3963 85.4986 27.3051 85.7727 27.0961 85.9393C26.974 86.0366 26.8251 86.0864 26.6752 86.0864Z" fill="#000072"/>
<path d="M70.166 79.4635C70.166 79.4635 73.2586 77.0643 74.1146 72.8453C74.1146 72.8453 75.8938 71.9458 77.1235 74.3797C77.1235 74.3797 75.705 81.8099 68.8027 85.4106C68.8027 85.4106 69.8001 81.5856 70.166 79.4635Z" fill="#0096F2"/>
<path d="M70.7873 79.8249C70.5577 81.0795 70.1572 82.7738 69.8551 84.0001C74.6292 80.7922 76.1294 75.6118 76.4082 74.4762C76.0276 73.8092 75.5776 73.4372 75.0685 73.3698C74.9257 73.3507 74.795 73.3587 74.6886 73.3755C73.8305 76.9619 71.5029 79.2045 70.7873 79.8249ZM68.8022 86.0864C68.6522 86.0864 68.5033 86.0365 68.3813 85.9392C68.1723 85.7727 68.081 85.4985 68.1484 85.24C68.1583 85.2021 69.1429 81.4179 69.4997 79.3486C69.5283 79.1826 69.6178 79.0335 69.7505 78.9302C69.7794 78.9075 72.6593 76.6179 73.452 72.7109C73.4931 72.5082 73.6248 72.3355 73.8094 72.2422C73.8739 72.2095 74.4633 71.9253 75.2461 72.03C75.9533 72.1236 76.9577 72.5546 77.7257 74.0749C77.7931 74.2082 77.8144 74.3599 77.7865 74.5065C77.726 74.8229 76.2249 82.3005 69.1145 86.0099C69.016 86.0611 68.9089 86.0864 68.8022 86.0864Z" fill="#000072"/>
<path d="M34.6294 62.2014C34.6294 62.2014 35.7905 65.494 35.4564 70.2979L39.2822 73.6279C39.2822 73.6279 40.282 67.8241 38.5792 63.004L34.6294 62.2014Z" fill="#0096F2"/>
<path d="M36.1524 70.0062L38.7684 72.2833C38.9456 70.4312 39.0966 66.8002 38.0641 63.5877L35.5794 63.0828C35.9005 64.4194 36.3291 66.8783 36.1524 70.0062ZM39.283 74.3027C39.1225 74.3027 38.9643 74.2454 38.8395 74.1367L35.0138 70.8068C34.8539 70.6676 34.7686 70.4614 34.7832 70.2501C35.1025 65.6595 34.0039 62.4563 33.9928 62.4245C33.9125 62.1951 33.9614 61.9398 34.1211 61.7567C34.281 61.5736 34.527 61.4909 34.7646 61.5382L38.7143 62.3406C38.9469 62.3878 39.1377 62.5538 39.2168 62.7777C40.9585 67.7075 39.9906 73.4977 39.9487 73.7417C39.9072 73.9822 39.7394 74.1817 39.5095 74.2635C39.4356 74.2898 39.359 74.3027 39.283 74.3027Z" fill="#000072"/>
<path d="M60.848 62.2014C60.848 62.2014 59.6869 65.494 60.021 70.2979L56.1953 73.6279C56.1953 73.6279 55.1954 67.8241 56.8983 63.004L60.848 62.2014Z" fill="#0096F2"/>
<path d="M57.4131 63.5886C56.3786 66.8069 56.5302 70.4348 56.7081 72.2848L59.3248 70.0072C59.1483 66.8792 59.5767 64.4204 59.8978 63.0838L57.4131 63.5886ZM56.1943 74.3037C56.1182 74.3037 56.0416 74.2908 55.9678 74.2645C55.7379 74.1827 55.57 73.9832 55.5286 73.7427C55.4866 73.4986 54.5188 67.7085 56.2605 62.7786C56.3396 62.5548 56.5303 62.3887 56.763 62.3415L60.7127 61.5391C60.9511 61.49 61.1972 61.5743 61.3567 61.7578C61.5163 61.9414 61.565 62.1965 61.4843 62.4259C61.4667 62.4765 60.3758 65.6744 60.694 70.2511C60.7087 70.4624 60.6233 70.6686 60.4634 70.8077L56.6377 74.1377C56.5129 74.2464 56.3548 74.3037 56.1943 74.3037Z" fill="#000072"/>
<path d="M43.9233 93.8771C42.9606 98.6064 37.473 100.77 33.6165 97.8714C30.598 95.6043 27.2832 90.4188 25.2351 79.048C25.0402 77.9582 24.8551 76.81 24.6836 75.6033L25.9873 74.3674L34.6299 66.1682C34.6299 66.1682 43.1438 79.354 44.087 89.4617V89.4636C44.2351 91.029 44.2 92.5203 43.9233 93.8771Z" fill="#B11313"/>
<g opacity="0.300003">
<g opacity="0.300003">
<path opacity="0.300003" d="M43.9234 93.8771C42.9607 98.6064 37.4731 100.77 33.6166 97.8714C30.5981 95.6043 27.2833 90.4189 25.2352 79.048C22.353 77.3111 21.3631 72.845 21.3631 72.845C20.1198 66.9149 21.5541 61.4487 21.5541 61.4487C21.2811 68.6668 24.145 72.1099 25.3263 73.2152C25.6554 73.5232 25.8854 73.9205 25.9857 74.36C25.9863 74.3625 25.9868 74.365 25.9874 74.3675C28.0979 83.709 31.6328 95.0896 36.7619 95.9045C41.7136 96.6901 43.8474 90.2376 44.0871 89.4636C44.2352 91.029 44.2001 92.5203 43.9234 93.8771Z" fill="#000072"/>
</g>
</g>
<path d="M35.3699 65.5376C36.354 66.6098 37.132 67.8057 37.8376 69.0411C38.1877 69.6604 38.5071 70.2956 38.8244 70.9318C39.1417 71.5682 39.4525 72.2078 39.7554 72.8515C40.9683 75.4253 42.0727 78.0569 42.99 80.7688C43.9082 83.4772 44.6476 86.2759 44.9172 89.1895C45.0469 90.6441 45.0548 92.1325 44.8078 93.6224C44.7542 93.9881 44.6761 94.3808 44.5558 94.7588C44.4467 95.1396 44.2919 95.5069 44.1243 95.867C43.7746 96.5811 43.3085 97.2397 42.7527 97.8093C41.6297 98.9373 40.1458 99.6979 38.5703 99.9215C37.7846 100.044 36.9777 100.018 36.1947 99.8787C35.4122 99.73 34.6566 99.449 33.9657 99.062C33.6279 98.8621 33.2876 98.6423 32.994 98.4001L32.5536 98.0387C32.4049 97.92 32.2773 97.7821 32.1384 97.6545C32.0042 97.5227 31.8614 97.3979 31.735 97.26L31.3583 96.8449C31.0982 96.5742 30.8826 96.2735 30.6492 95.9848C29.7474 94.8084 29.028 93.529 28.3966 92.2246C27.7548 90.9213 27.2642 89.566 26.789 88.2111C26.3481 86.846 25.9464 85.4715 25.616 84.0831C25.4527 83.3886 25.2773 82.6965 25.144 81.997C25.0068 81.2982 24.8423 80.6041 24.7425 79.8996C24.5216 78.4937 24.4178 77.0686 24.5394 75.6232C24.5463 75.5414 24.6181 75.4808 24.6998 75.4876C24.7567 75.4924 24.8034 75.5288 24.8242 75.578L24.8259 75.5823C25.1068 76.2541 25.3193 76.9319 25.5025 77.6133C25.683 78.2952 25.8699 78.9727 26.0116 79.6587C26.1471 80.3462 26.306 81.0267 26.4555 81.7098C26.5975 82.395 26.7804 83.0685 26.9511 83.7453C27.2963 85.0978 27.7093 86.4276 28.1571 87.7416C28.6373 89.0406 29.1307 90.3377 29.7581 91.5583C30.3727 92.7837 31.0736 93.9596 31.8973 95.0187C32.1101 95.2763 32.3074 95.5502 32.5401 95.786L32.8772 96.1523C32.9898 96.2739 33.1153 96.3796 33.2334 96.4944C33.3553 96.604 33.4682 96.7264 33.5969 96.8261L33.9773 97.133C34.2294 97.3386 34.4869 97.4975 34.7558 97.6564C35.2988 97.9535 35.8839 98.1655 36.4886 98.276C37.094 98.3764 37.7169 98.3953 38.3254 98.2935C39.5466 98.1129 40.6953 97.5054 41.5582 96.6312C41.9882 96.1916 42.349 95.6851 42.6218 95.1329C42.7511 94.8534 42.8742 94.5695 42.9591 94.2713C43.0544 93.9768 43.1153 93.6754 43.1645 93.3433C43.3835 92.0474 43.3857 90.6898 43.2676 89.3363C43.1479 87.9807 42.9073 86.6237 42.5958 85.2786C42.2862 83.9324 41.8992 82.5974 41.4686 81.2748C40.6053 78.6286 39.5503 76.034 38.3841 73.4895C38.093 72.853 37.7938 72.2199 37.4881 71.5898C37.1839 70.959 36.8636 70.3363 36.5669 69.7011C35.9677 68.4338 35.4034 67.1457 34.958 65.784L34.9566 65.7795C34.9145 65.6508 34.9847 65.5124 35.1132 65.4703C35.2074 65.4395 35.3069 65.4691 35.3699 65.5376Z" fill="#000072"/>
<path d="M27.1257 87.5972C26.9438 87.5972 26.7623 87.5243 26.6292 87.38C26.3763 87.1058 26.393 86.6788 26.6668 86.4256C26.9174 86.1938 32.9096 80.7408 42.0839 80.0546C42.4549 80.0247 42.78 80.3059 42.8079 80.6781C42.8357 81.0503 42.5566 81.3747 42.1846 81.4025C33.4971 82.0522 27.6418 87.3647 27.5836 87.4182C27.4538 87.5379 27.2895 87.5972 27.1257 87.5972Z" fill="#000072"/>
<path d="M51.5548 93.8771C52.5175 98.6064 58.0051 100.77 61.8616 97.8714C64.8802 95.6043 68.1949 90.4188 70.243 79.048C70.4379 77.9582 70.623 76.81 70.7945 75.6033L69.4908 74.3674L60.8483 66.1682C60.8483 66.1682 52.3343 79.354 51.3911 89.4617V89.4636C51.243 91.029 51.2781 92.5203 51.5548 93.8771Z" fill="#B11313"/>
<g opacity="0.300003">
<g opacity="0.300003">
<path opacity="0.300003" d="M51.5544 93.8771C52.5171 98.6064 58.0047 100.77 61.8612 97.8714C64.8798 95.6043 68.1945 90.4189 70.2426 79.048C73.1248 77.3111 74.1147 72.845 74.1147 72.845C75.358 66.9149 73.9238 61.4487 73.9238 61.4487C74.1967 68.6668 71.3328 72.1099 70.1516 73.2152C69.8224 73.5232 69.5924 73.9205 69.4922 74.36C69.4916 74.3625 69.491 74.365 69.4904 74.3675C67.38 83.709 63.845 95.0896 58.716 95.9045C53.7643 96.6901 51.6304 90.2376 51.3907 89.4636C51.2426 91.029 51.2777 92.5203 51.5544 93.8771Z" fill="#000072"/>
</g>
</g>
<path d="M60.5193 65.784C60.074 67.1457 59.5096 68.4338 58.9104 69.7011C58.6137 70.3362 58.2934 70.9589 57.9893 71.5898C57.6836 72.2199 57.3843 72.8529 57.0933 73.4895C55.9271 76.0339 54.8721 78.6286 54.0088 81.2748C53.5781 82.5974 53.1911 83.9324 52.8815 85.2786C52.5701 86.6237 52.3295 87.9807 52.2097 89.3363C52.0917 90.6898 52.0939 92.0474 52.3129 93.3433C52.3621 93.6754 52.4229 93.9768 52.5182 94.2713C52.6031 94.5695 52.7263 94.8534 52.8555 95.1329C53.1284 95.6851 53.4892 96.1916 53.9191 96.6311C54.782 97.5054 55.9308 98.1129 57.152 98.2935C57.7604 98.3953 58.3834 98.3764 58.9888 98.2759C59.5935 98.1655 60.1785 97.9535 60.7216 97.6564C60.9905 97.4975 61.248 97.3386 61.5001 97.133L61.8804 96.8261C62.0092 96.7264 62.1221 96.604 62.2439 96.4944C62.362 96.3796 62.4875 96.2739 62.6002 96.1523L62.9373 95.786C63.17 95.5502 63.3673 95.2763 63.5801 95.0187C64.4038 93.9596 65.1047 92.7836 65.7192 91.5583C66.3467 90.3376 66.8401 89.0405 67.3202 87.7415C67.768 86.4276 68.1811 85.0978 68.5263 83.7453C68.697 83.0685 68.8799 82.3951 69.0219 81.7098C69.1714 81.0267 69.3302 80.3462 69.4657 79.6586C69.6074 78.9727 69.7944 78.2952 69.9749 77.6133C70.1581 76.9318 70.3706 76.254 70.6515 75.5823L70.6532 75.5782C70.6848 75.5026 70.7717 75.4669 70.8473 75.4985C70.9001 75.5206 70.9334 75.5698 70.938 75.6231C71.0595 77.0685 70.9558 78.4937 70.7348 79.8995C70.635 80.6041 70.4706 81.2982 70.3334 81.997C70.2001 82.6965 70.0247 83.3886 69.8614 84.0831C69.531 85.4715 69.1293 86.846 68.6884 88.2111C68.2131 89.566 67.7225 90.9213 67.0807 92.2246C66.4493 93.529 65.73 94.8083 64.8282 95.9848C64.5948 96.2735 64.3791 96.5742 64.1191 96.8449L63.7423 97.26C63.616 97.3979 63.4731 97.5227 63.339 97.6545C63.2001 97.7821 63.0725 97.9199 62.9237 98.0387L62.4834 98.4001C62.1898 98.6422 61.8495 98.8621 61.5116 99.062C60.8208 99.4489 60.0651 99.73 59.2827 99.8787C58.4997 100.018 57.6927 100.044 56.9071 99.9215C55.3316 99.698 53.8477 98.9373 52.7246 97.8093C52.1689 97.2397 51.7028 96.5811 51.353 95.867C51.1855 95.5069 51.0306 95.1396 50.9215 94.7587C50.8012 94.3809 50.7231 93.9881 50.6696 93.6224C50.4225 92.1325 50.4305 90.6441 50.5601 89.1895C50.8298 86.2759 51.5692 83.4772 52.4873 80.7688C53.4047 78.057 54.509 75.4253 55.722 72.8515C56.0248 72.2078 56.3356 71.5681 56.6529 70.9318C56.9703 70.2956 57.2897 69.6603 57.6398 69.0411C58.3453 67.8057 59.1234 66.6098 60.1074 65.5375C60.1989 65.4378 60.3539 65.4312 60.4536 65.5227C60.5266 65.5898 60.5497 65.6908 60.521 65.7793L60.5193 65.784Z" fill="#000072"/>
<path d="M68.3519 87.5972C68.188 87.5972 68.0237 87.538 67.8938 87.4178C67.8357 87.3643 61.9804 82.0518 53.2929 81.4021C52.9209 81.3743 52.6418 81.0499 52.6696 80.6777C52.6974 80.3055 53.0221 80.0245 53.3936 80.0542C62.5679 80.7403 68.5601 86.1934 68.8107 86.4252C69.0846 86.6786 69.1014 87.1062 68.8481 87.3802C68.715 87.5243 68.5337 87.5972 68.3519 87.5972Z" fill="#000072"/>
<path d="M47.7485 59.6403C65.4164 59.6403 72.4315 51.9195 72.4315 51.9195C72.4315 51.9195 72.7259 52.5843 72.8692 53.5291C73.1064 55.0936 72.4423 56.663 71.1776 57.6134C68.3976 59.7026 61.3188 63.6836 47.7394 63.6836C34.1599 63.6836 27.0811 59.7026 24.3011 57.6134C23.0364 56.663 22.3723 55.0936 22.6096 53.5291C22.7529 52.5843 23.0472 51.9195 23.0472 51.9195C23.0472 51.9195 30.0624 59.6403 47.7302 59.6403" fill="#751313"/>
<g opacity="0.300003">
<g opacity="0.300003">
<path opacity="0.300003" d="M72.8052 53.1674C72.5778 54.1487 72.0087 55.0404 71.1782 55.6645C68.3982 57.7537 61.3194 61.7347 47.7399 61.7347C34.1605 61.7347 27.0817 57.7537 24.3017 55.6645C23.4712 55.0404 22.9021 54.1487 22.6747 53.1674C22.6513 53.2827 22.6293 53.4034 22.6102 53.5296C22.3729 55.0941 23.037 56.6635 24.3017 57.6139C27.0817 59.7031 34.1605 63.6841 47.7399 63.6841C61.3194 63.6841 68.3982 59.7031 71.1782 57.6139C72.4428 56.6635 73.107 55.0941 72.8697 53.5296C72.8506 53.4034 72.8286 53.2827 72.8052 53.1674Z" fill="#000072"/>
</g>
</g>
<path d="M47.7385 64.3599C34.1772 64.3599 26.9786 60.4717 23.8946 58.1541C22.4159 57.0427 21.6673 55.2319 21.9408 53.4283C22.0958 52.4055 22.4151 51.6767 22.4286 51.6463C22.5211 51.4372 22.7129 51.2891 22.9384 51.2527C23.1635 51.2158 23.3925 51.2962 23.5462 51.4652C23.614 51.5393 30.6173 58.9649 47.7294 58.9649V60.3166C33.1141 60.3166 25.7003 55.1592 23.3677 53.1508C23.334 53.2989 23.3025 53.4599 23.2765 53.6309C23.0778 54.9422 23.6255 56.2614 24.7061 57.0736C27.6554 59.2899 34.5695 63.0082 47.7385 63.0082C60.9075 63.0082 67.8217 59.2899 70.7711 57.0736C71.8515 56.2614 72.3992 54.9423 72.2004 53.6309C72.1745 53.4599 72.143 53.2989 72.1093 53.1508C69.7767 55.1592 62.3629 60.3166 47.7476 60.3166V58.9649C64.9179 58.9649 71.8626 51.5402 71.9308 51.4652C72.0845 51.2962 72.3133 51.2162 72.5386 51.2527C72.7641 51.2891 72.9559 51.4372 73.0484 51.6463C73.0619 51.6767 73.3812 52.4055 73.5362 53.4283C73.8097 55.2319 73.0612 57.0429 71.5826 58.1541C68.4986 60.4717 61.2999 64.3599 47.7385 64.3599Z" fill="#000072"/>
<path d="M23.0613 57.6331L33.9549 82.4399" stroke="#000072" stroke-width="0.5" stroke-miterlimit="10"/>
<path d="M61.0496 82.4395L72.1743 57.6327" stroke="#000072" stroke-width="0.5" stroke-miterlimit="10"/>
<path fill-rule="evenodd" clip-rule="evenodd" d="M46.9385 67.764C46.934 67.8238 46.8978 67.8773 46.8736 67.9361C46.8502 67.993 46.8288 68.054 46.8087 68.1138C46.756 68.2694 46.7068 68.4228 46.7113 68.6245C46.8909 68.6482 47.1174 68.6305 47.2794 68.6078C47.368 68.6471 47.4249 68.7082 47.5067 68.7521C47.4913 68.6768 47.5651 68.6625 47.6284 68.6411C47.6003 68.6737 47.5567 68.6956 47.5716 68.7577C47.6086 68.7745 47.6145 68.7298 47.6447 68.7243C47.6865 68.7569 47.7394 68.7551 47.7827 68.7243C47.8137 68.729 47.8053 68.7607 47.8395 68.7632C47.8877 68.7201 47.8189 68.6733 47.7989 68.6411C47.8591 68.6628 47.9277 68.6788 47.9207 68.7466C47.9862 68.7192 48.0661 68.6536 48.1317 68.6078C48.3008 68.6321 48.5169 68.6435 48.7161 68.63C48.7094 68.2922 48.5895 68.032 48.4726 67.7696C48.505 67.7668 48.5047 67.796 48.5132 67.8084C48.6339 67.9871 48.7414 68.1911 48.8298 68.408C48.8426 68.4394 48.8642 68.4823 48.8784 68.5245C48.8909 68.5615 48.9173 68.6259 48.9109 68.6466C48.897 68.6922 48.787 68.7075 48.7648 68.7466C48.6972 68.692 48.5025 68.7077 48.3184 68.7022C48.2662 68.7006 48.1962 68.6903 48.1642 68.6966C48.0934 68.7104 48.0625 68.7811 48.0262 68.8187C48.1262 68.8235 48.2051 68.7571 48.2941 68.7521C48.3504 68.7489 48.4328 68.7779 48.505 68.791C48.7143 68.8289 48.9477 68.8609 49.1382 68.902C49.1497 68.4556 48.982 68.0836 48.7567 67.7807C48.9806 67.992 49.1314 68.2394 49.2437 68.5301C49.2631 68.5803 49.2798 68.6282 49.2924 68.6799C49.3102 68.7526 49.3109 68.8425 49.3655 68.8964C49.2981 68.9466 49.2172 68.9874 49.1463 69.0352C48.9468 68.9539 48.5615 68.8365 48.2372 68.8576C48.1596 68.8626 48.0909 68.8891 48.0343 68.9242C48.1334 68.9513 48.202 68.9538 48.3346 68.952C48.3676 68.9514 48.4153 68.9421 48.4401 68.9464C48.4683 68.9513 48.5135 68.9911 48.5537 69.0185C48.7882 69.1789 48.9979 69.2963 49.2762 69.4238C49.3631 69.4636 49.4121 69.5041 49.5115 69.4515C49.528 69.9784 49.3234 70.3671 49.0732 70.7227C49.0441 70.7641 49.0256 70.8123 48.9759 70.8448C49.164 70.5412 49.3086 70.18 49.3086 69.7569C49.3086 69.7124 49.321 69.6572 49.3086 69.6181C49.291 69.5626 49.1633 69.5037 49.0894 69.4571C48.8797 69.3247 48.7129 69.2317 48.4807 69.1074C48.4352 69.083 48.3966 69.0501 48.359 69.0408C48.3194 69.0309 48.2571 69.0289 48.2128 69.0241C48.1575 69.0181 48.1044 69.0165 48.0586 69.013C48.1484 69.0789 48.2907 69.1607 48.4158 69.2239C48.4386 69.2379 48.4624 69.2189 48.4888 69.2184C48.5185 69.8372 48.4514 70.4432 48.1967 70.8948C48.1358 71.0026 48.0684 71.1084 47.9612 71.189C48.3074 70.7617 48.3334 70.0279 48.2615 69.3849C48.3351 69.3413 48.3032 69.3051 48.2372 69.2517C48.1651 69.1933 48.0371 69.1082 47.9531 69.0796C47.9472 69.1085 47.9617 69.1369 47.9775 69.1629C47.9933 69.189 48.0285 69.2116 48.0343 69.235C48.0466 69.2848 48.017 69.3937 48.0018 69.4515C47.9516 69.643 47.8458 69.8533 47.7502 69.9955C47.7165 69.9926 47.7401 69.9506 47.7177 69.94C47.6817 69.9413 47.7035 69.9821 47.6853 69.9955C47.5735 69.8652 47.4781 69.6493 47.4255 69.4515C47.4068 69.3809 47.3776 69.2958 47.3931 69.235C47.4054 69.1868 47.4814 69.143 47.4742 69.0852C47.3999 69.0968 47.3307 69.1474 47.2713 69.1906C47.2122 69.2338 47.1508 69.2802 47.109 69.3294C47.114 69.3537 47.1486 69.3578 47.1577 69.3794C47.1044 70.03 47.1062 70.7624 47.4661 71.1834C47.4282 71.1799 47.4105 71.147 47.3931 71.1279C47.058 70.7614 46.9679 70.1963 46.9304 69.6125C46.9221 69.4835 46.9136 69.3573 46.9385 69.2295C46.9454 69.2027 46.9872 69.2424 47.0116 69.2239C47.1397 69.158 47.2551 69.0833 47.3768 69.013C47.2708 69.0242 47.1556 69.0206 47.0603 69.0463C46.9775 69.0686 46.887 69.1304 46.8087 69.174C46.5704 69.3067 46.3194 69.4508 46.1187 69.6014C46.0778 70.0968 46.2436 70.4959 46.4434 70.8448C46.1553 70.4606 45.8879 70.0334 45.9158 69.4515C46.0256 69.5227 46.1928 69.4069 46.2811 69.3627C46.5268 69.2398 46.7893 69.0812 46.9791 68.9464C47.1166 68.9603 47.278 68.9491 47.3931 68.9297C47.2497 68.8046 46.882 68.8674 46.6625 68.9131C46.5153 68.9437 46.3778 68.9877 46.2892 69.0352C46.2049 68.9966 46.1404 68.9445 46.0619 68.902C46.1194 68.8033 46.1316 68.6374 46.1756 68.5245C46.2829 68.2489 46.4502 68.0049 46.6544 67.7807C46.649 67.8233 46.6058 67.86 46.5814 67.8973C46.4035 68.1678 46.2864 68.5032 46.2811 68.8964C46.4686 68.8673 46.6926 68.8315 46.9142 68.791C46.9864 68.7778 47.0613 68.7507 47.1171 68.7521C47.2073 68.7543 47.2921 68.818 47.3931 68.8187C47.3691 68.7666 47.3233 68.7295 47.2713 68.6966C47.1041 68.7097 46.9174 68.6892 46.7681 68.7077C46.7528 68.7096 46.7329 68.7157 46.7113 68.7243C46.7132 68.7236 46.663 68.7465 46.6707 68.7466C46.6369 68.7463 46.5545 68.6663 46.5165 68.6578C46.5945 68.317 46.7705 68.0433 46.9385 67.764Z" fill="#000072"/>
<path fill-rule="evenodd" clip-rule="evenodd" d="M47.7395 64.3592V73.9438V64.3592Z" fill="#000072"/>
<path d="M47.7395 64.3592V73.9438" stroke="#000072" stroke-width="0.5" stroke-miterlimit="10"/>
<path d="M44.7495 64.2943C44.7495 64.2943 45.2761 72.146 44.5048 73.5361" stroke="#000072" stroke-width="0.5" stroke-miterlimit="10"/>
<path d="M42.3824 64.1437C42.3824 64.1437 43.5701 67.7765 41.8537 72.6836" stroke="#000072" stroke-width="0.5" stroke-miterlimit="10"/>
<path d="M50.4701 64.3593C50.4701 64.3593 49.9194 71.3163 50.7158 73.6851" stroke="#000072" stroke-width="0.5" stroke-miterlimit="10"/>
<path d="M53.2791 64.1437C53.2791 64.1437 52.02 71.0424 53.8898 72.6836" stroke="#000072" stroke-width="0.5" stroke-miterlimit="10"/>
<path d="M39.921 65.5226C39.921 65.5226 41.1069 64.3903 42.6645 65.5226C42.6645 65.5226 43.4763 64.3988 44.8263 65.6772C44.8263 65.6772 45.5626 64.2775 47.7298 65.5226C47.7298 65.5226 48.6445 64.3528 50.2855 65.5226C50.2855 65.5226 51.5747 64.2237 53.0847 65.4581C53.0847 65.4581 54.4311 63.992 55.5968 65.3015" stroke="#000072" stroke-width="0.5" stroke-miterlimit="10"/>
<path d="M47.5671 67.3219C47.5247 67.2919 47.4826 67.2635 47.4408 67.2367C45.9647 66.2904 44.8937 67.3481 44.8937 67.3481C43.7987 66.2112 42.7833 67.3481 42.7833 67.3481C41.0812 65.3616 40.1622 67.3481 40.1622 67.3481" stroke="#000072" stroke-width="0.5" stroke-miterlimit="10"/>
<path d="M47.5245 67.3426C47.5245 67.3426 48.87 66.2634 50.2855 67.3426C50.2855 67.3426 51.6609 66.0069 52.8648 67.4023C52.8648 67.4023 54.6521 66.0265 55.3187 67.3745" stroke="#000072" stroke-width="0.5" stroke-miterlimit="10"/>
<path d="M40.1621 70.6651C40.1621 70.6651 41.2542 68.8653 42.4036 70.8179C42.4036 70.8179 44.4648 69.3934 44.9035 71.3827C44.9035 71.3827 46.6103 70.5147 47.8032 71.9434C47.8032 71.9434 49.0671 70.4646 50.531 71.5925C50.531 71.5925 51.5085 69.3308 53.1629 71.0757C53.1629 71.0757 54.1824 69.1897 55.3189 70.2658" stroke="#000072" stroke-width="0.5" stroke-miterlimit="10"/>
<path d="M40.0505 71.7413C40.0505 71.7413 41.4727 70.2984 42.0946 71.9435C42.0946 71.9435 44.1431 71.017 44.715 72.6833C44.715 72.6833 46.8318 71.5726 47.713 73.3496C47.713 73.3496 48.9655 72.169 50.4711 72.9711C50.4711 72.9711 51.8549 70.8889 53.4567 72.118C53.4567 72.118 54.5963 70.1705 55.2784 71.3828" stroke="#000072" stroke-width="0.5" stroke-miterlimit="10"/>
<path d="M27.5836 87.4171C27.5836 87.4171 33.8869 80.7886 41.8543 81.4286L43.6654 86.9934C43.6654 86.9934 41.7077 95.2557 29.3662 92.4718L27.5836 87.4171Z" fill="#000072"/>
<path d="M27.5836 87.4171C27.5836 87.4171 33.8869 80.7886 41.8543 81.4286L43.6654 86.9934C43.6654 86.9934 41.7077 95.2557 29.3662 92.4718L27.5836 87.4171Z" stroke="#000072" stroke-width="0.5" stroke-miterlimit="10"/>
<path d="M51.5216 88.3619L53.3776 80.4671L62.124 83.1273L67.3355 86.0871V88.3619L66.1117 92.4726C66.1117 92.4726 57.3553 95.3562 51.5216 88.3619Z" fill="#000072"/>
<path d="M51.5216 88.3619L53.3776 80.4671L62.124 83.1273L67.3355 86.0871V88.3619L66.1117 92.4726C66.1117 92.4726 57.3553 95.3562 51.5216 88.3619Z" stroke="#000072" stroke-width="0.5" stroke-miterlimit="10"/>
<path d="M7.25873 77.8471L13.9921 95.312" stroke="#000072" stroke-width="0.5" stroke-miterlimit="10"/>
<path d="M5.51202 80.0521C5.51202 80.0521 6.67549 88.1365 11.7543 95.1807" stroke="#000072" stroke-width="0.5" stroke-miterlimit="10"/>
<path d="M9.99268 77.1745C9.99268 77.1745 15.2518 86.1061 16.0643 95.4526" stroke="#000072" stroke-width="0.5" stroke-miterlimit="10"/>
<path d="M13.367 77.8471C13.367 77.8471 16.5566 84.2078 18.3549 95.312" stroke="#000072" stroke-width="0.5" stroke-miterlimit="10"/>
<path d="M4.7973 83.8242C4.7973 83.8242 4.81059 82.0354 6.08174 82.729C6.08174 82.729 6.55474 79.6008 8.6325 81.5869C8.6325 81.5869 8.71119 78.411 11.6149 80.3152C11.6149 80.3152 12.4431 77.9846 14.1824 80.0519C14.1824 80.0519 15.045 79.575 15.6001 80.6504" stroke="#000072" stroke-width="0.5" stroke-miterlimit="10"/>
<path d="M5.71338 81.1455C5.71338 81.1455 6.15917 78.8321 7.93379 79.5986C7.93379 79.5986 8.28514 77.697 10.6254 78.3293C10.6254 78.3293 10.9697 77.0857 13.7466 78.6753" stroke="#000072" stroke-width="0.5" stroke-miterlimit="10"/>
<path d="M5.04486 84.7759C5.04486 84.7759 5.14284 82.9832 6.49849 84.2305C6.49849 84.2305 6.92561 81.1269 9.29404 83.1268C9.29404 83.1268 9.35745 80.0879 12.1135 81.8053C12.1135 81.8053 13.1275 80.1084 14.8948 81.5868C14.8948 81.5868 15.2104 80.7035 16.0923 81.5868" stroke="#000072" stroke-width="0.5" stroke-miterlimit="10"/>
<path d="M5.04486 86.314C5.04486 86.314 5.59506 84.5903 7.10045 86.0866C7.10045 86.0866 8.02165 83.272 9.99243 85.1769C9.99243 85.1769 10.7864 81.4199 13.2038 84.0001C13.2038 84.0001 13.5798 81.5471 15.5025 83.362C15.5025 83.362 15.6484 81.8557 16.662 83.0651" stroke="#000072" stroke-width="0.5" stroke-miterlimit="10"/>
<path d="M5.51202 87.6167C5.51202 87.6167 6.02395 86.1969 7.51558 87.2161C7.51558 87.2161 9.13734 84.975 10.6257 86.5801C10.6257 86.5801 12.2228 84.1677 13.7468 86.001C13.7468 86.001 14.5395 83.7376 16.1069 85.3133C16.1069 85.3133 16.6877 84.4695 17.1569 85.1995" stroke="#000072" stroke-width="0.5" stroke-miterlimit="10"/>
<path d="M6.05115 89.2876C6.05115 89.2876 6.95274 87.7409 8.10545 88.6646C8.10545 88.6646 9.11551 86.9019 11.3165 88.3704C11.3165 88.3704 12.364 85.984 14.5192 87.7862C14.5192 87.7862 15.2986 85.7555 16.663 87.5967C16.663 87.5967 16.6682 85.6262 17.6234 86.5797" stroke="#000072" stroke-width="0.5" stroke-miterlimit="10"/>
<path d="M6.71356 91.2373V90.7411C6.71356 90.7411 7.31755 88.9318 8.76373 90.1121C8.76373 90.1121 10.257 88.4001 11.837 89.721C11.837 89.721 13.4697 87.5831 14.9467 89.2874C14.9467 89.2874 15.836 87.4188 17.1571 89.2805" stroke="#000072" stroke-width="0.5" stroke-miterlimit="10"/>
<path d="M7.83899 91.8438C7.83899 91.8438 7.89496 90.881 9.32766 91.237C9.32766 91.237 10.8634 90.0731 12.3903 91.158C12.3903 91.158 13.4676 89.2466 15.296 90.6955C15.296 90.6955 16.562 89.2059 17.4283 90.4674" stroke="#000072" stroke-width="0.5" stroke-miterlimit="10"/>
<path d="M8.63342 93.0449C8.63342 93.0449 9.1869 92.2028 10.1996 92.8001C10.1996 92.8001 11.5145 91.524 12.9418 92.586C12.9418 92.586 13.9348 91.0806 15.6052 92.1638C15.6052 92.1638 16.6643 90.7911 17.7216 91.8436" stroke="#000072" stroke-width="0.5" stroke-miterlimit="10"/>
<path d="M9.73083 93.8989C9.73083 93.8989 9.90454 93.0073 10.8545 93.8598C10.8545 93.8598 11.9642 93.1471 13.3673 93.8989C13.3673 93.8989 14.8976 92.9394 15.8613 93.6949C15.8613 93.6949 17.1141 92.7533 17.9467 93.6519" stroke="#000072" stroke-width="0.5" stroke-miterlimit="10"/>
<path d="M11.3345 94.5227C11.3345 94.5227 12.0725 93.7476 13.7469 94.6758C13.7469 94.6758 14.6659 94.1146 15.5077 94.3125C15.6279 94.3408 15.7466 94.3845 15.8608 94.4476" stroke="#000072" stroke-width="0.5" stroke-miterlimit="10"/>
<path d="M15.9865 94.6807C15.9865 94.6807 16.8379 93.9378 18.2841 94.4494" stroke="#000072" stroke-width="0.5" stroke-miterlimit="10"/>
<path d="M17.6236 86.3187C17.3696 86.8961 18.3553 95.9844 18.3553 95.9844H30.6504L30.3886 95.3116L27.5843 89.9603L25.8289 84.9335C21.8512 84.3694 17.9467 75.0509 17.9467 75.0509L15.1781 77.9961L15.8613 79.5979L17.1575 82.5949L17.6236 86.3187Z" fill="#000072"/>
<path d="M87.7121 77.4244L81.6935 95.312" stroke="#000072" stroke-width="0.5" stroke-miterlimit="10"/>
<path d="M89.3106 79.6078C89.3106 79.6078 88.2407 91.0224 83.2177 95.5859" stroke="#000072" stroke-width="0.5" stroke-miterlimit="10"/>
<path d="M85.3939 77.3157C85.3939 77.3157 81.3179 87.109 79.3823 95.4209" stroke="#000072" stroke-width="0.5" stroke-miterlimit="10"/>
<path d="M82.006 78.174C82.006 78.174 79.0394 83.7389 77.5004 96.4556" stroke="#000072" stroke-width="0.5" stroke-miterlimit="10"/>
<path d="M90.3117 82.624C90.3117 82.624 89.9873 81.0416 88.9586 82.1069C88.9586 82.1069 88.5291 79.2784 86.5007 81.0248C86.5007 81.0248 85.9281 78.6142 84.1479 80.4671C84.1479 80.4671 82.7623 78.1631 81.0366 80.4671C81.0366 80.4671 80.68 79.8837 79.8452 80.6507" stroke="#000072" stroke-width="0.5" stroke-miterlimit="10"/>
<path d="M90.4157 84.2256C90.4157 84.2256 90.0348 82.673 88.6317 83.8251C88.6317 83.8251 87.8161 81.8796 85.7935 83.1276C85.7935 83.1276 85.3192 81.1572 83.2172 82.4406C83.2172 82.4406 82.5961 80.9405 80.5027 82.0064C80.5027 82.0064 80.0129 81.0578 79.1359 82.0901" stroke="#000072" stroke-width="0.5" stroke-miterlimit="10"/>
<path d="M90.4162 86.0864C90.4162 86.0864 89.6149 84.4145 88.2462 85.4974C88.2462 85.4974 86.9669 83.6846 85.1182 85.1324C85.1182 85.1324 84.4191 83.3651 82.6416 84.5716C82.6416 84.5716 81.732 82.6231 79.8449 84.0001C79.8449 84.0001 79.499 82.9728 78.1271 83.8241" stroke="#000072" stroke-width="0.5" stroke-miterlimit="10"/>
<path d="M90.085 87.5972C90.085 87.5972 89.6128 85.9442 87.7443 87.3151C87.7443 87.3151 86.4711 85.1932 84.5699 86.7642C84.5699 86.7642 83.748 84.6021 82.0058 86.3684C82.0058 86.3684 81.4563 84.6094 79.3816 85.9459C79.3816 85.9459 79.078 84.5696 78.1925 85.7507C77.307 86.9316 77.9584 85.7286 77.9584 85.7286" stroke="#000072" stroke-width="0.5" stroke-miterlimit="10"/>
<path d="M89.5834 89.2378C89.5834 89.2378 88.9074 87.3921 87.241 88.8413C87.241 88.8413 86.1983 87.3343 84.0575 88.2861C84.0575 88.2861 82.7633 86.7314 81.2626 88.2854C81.2626 88.2854 80.2407 86.705 78.8989 88.0215C78.8989 88.0215 78.3762 85.4281 77.1147 87.9345" stroke="#000072" stroke-width="0.5" stroke-miterlimit="10"/>
<path d="M88.5609 90.5171C88.5609 90.5171 88.5197 88.8313 86.7219 90.1872C86.7219 90.1872 85.5372 88.5332 83.4518 90.0884C83.4518 90.0884 82.3242 88.3865 80.7992 90.185C80.7992 90.185 79.7603 88.5356 78.4716 90.1324C78.4716 90.1324 78.431 87.3826 76.6916 89.5381" stroke="#000072" stroke-width="0.5" stroke-miterlimit="10"/>
<path d="M87.7125 91.9438C87.7125 91.9438 87.4449 91.024 86.009 91.7346C86.009 91.7346 84.4492 90.5629 82.9076 91.7045C82.9076 91.7045 82.0177 90.4529 80.389 91.5743C80.389 91.5743 79.0488 90.4057 78.1278 91.5257C78.1278 91.5257 78.2091 89.4348 76.2548 91.0402" stroke="#000072" stroke-width="0.5" stroke-miterlimit="10"/>
<path d="M86.6777 93.0612C86.6777 93.0612 86.4574 92.0227 85.2647 93.0612C85.2647 93.0612 83.9103 92.1505 82.3876 93.2505C82.3876 93.2505 80.889 92.3009 79.9249 93.2505C79.9249 93.2505 78.892 91.8497 77.7989 93.2505C77.7989 93.2505 77.4644 91.3994 76.4086 92.925" stroke="#000072" stroke-width="0.5" stroke-miterlimit="10"/>
<path d="M85.7665 93.5954C85.7665 93.5954 85.272 93.1427 84.7759 93.7982C84.7759 93.7982 82.796 93.2162 82.0057 94.3848C82.0057 94.3848 81.1552 93.4576 79.632 94.3848C79.632 94.3848 78.8876 93.0157 77.7716 94.3848C77.7716 94.3848 77.1567 92.5645 76.0041 94.3848" stroke="#000072" stroke-width="0.5" stroke-miterlimit="10"/>
<path d="M70.0555 84.7874L74.007 80.9778L77.1152 75.704L77.5001 74.5334L80.1089 77.425L80.3135 78.8614L78.8993 80.4674L78.1276 82.4404L77.7987 84.7874V86.0479L77.7719 86.889C77.7719 86.889 76.4224 93.2523 77.1152 95.7566L65.0801 96.0552L64.6876 95.3125L66.6533 91.493L68.811 86.4256L70.0555 84.7874Z" fill="#000072"/>
<path d="M67.8473 60.0848C67.8473 60.0848 58.2157 78.7812 57.1341 84.001" stroke="#000072" stroke-width="0.5" stroke-miterlimit="10"/>
<path d="M64.7743 61.5196C64.7743 61.5196 55.359 80.3713 56.1918 81.9663" stroke="#000072" stroke-width="0.5" stroke-miterlimit="10"/>
<path d="M73.7634 60.49C73.7634 60.49 66.6053 79.993 63.276 84.5503" stroke="#000072" stroke-width="0.5" stroke-miterlimit="10"/>
<path d="M60.8475 64.36C60.8475 64.36 63.0256 62.0541 63.5641 63.9789C63.5641 63.9789 65.0266 61.8247 66.2182 63.3003C66.2182 63.3003 69.0563 61.0144 69.5108 63.5718C69.5108 63.5718 72.091 61.5381 72.306 64.36C72.306 64.36 73.2429 64.0948 73.2202 66.4655C73.2202 66.4655 74.0619 68.3074 73.8176 69.0229" stroke="#000072" stroke-width="0.5" stroke-miterlimit="10"/>
<path d="M64.4357 62.2005C64.4357 62.2005 66.1413 60.6597 67.1148 61.5195C67.1148 61.5195 69.4097 59.1926 70.6063 61.1284C70.6063 61.1284 72.8758 60.7273 72.9159 62.7564C72.9159 62.7564 73.8349 63.9096 73.7633 64.3588C73.7633 64.3588 72.7114 71.4287 70.6996 75.6299C70.6996 75.6299 68.0322 84.7848 65.3158 85.5176" stroke="#000072" stroke-width="0.5" stroke-miterlimit="10"/>
<path d="M60.5212 65.7797C60.5212 65.7797 61.8849 64.0769 62.6936 65.7797C62.6936 65.7797 64.6932 63.8514 64.7742 65.7797C64.7742 65.7797 67.9306 64.2531 68.3472 66.1685C68.3472 66.1685 70.6777 64.5068 71.1489 67.348C71.1489 67.348 73.3893 66.5097 72.6786 69.4007C72.6786 69.4007 73.9217 69.0755 73.6873 70.8936" stroke="#000072" stroke-width="0.5" stroke-miterlimit="10"/>
<path d="M59.2929 67.908C59.2929 67.908 61.2745 66.0561 61.5239 68.2354C61.5239 68.2354 63.4427 66.3666 63.5476 68.729C63.5476 68.729 66.9758 66.9683 66.8976 69.4006C66.8976 69.4006 69.2924 68.6372 69.7223 70.9263C69.7223 70.9263 71.7908 70.2361 72.0061 72.1676C72.0061 72.1676 73.5319 72.0726 73.3889 73.3057" stroke="#000072" stroke-width="0.5" stroke-miterlimit="10"/>
<path d="M58.2401 70.2651C58.2401 70.2651 59.767 67.715 60.6951 70.2501C60.6951 70.2501 61.9301 69.1355 62.4906 70.7145C62.4906 70.7145 65.4941 69.712 65.7571 71.9427C65.7571 71.9427 67.7895 70.6653 68.8027 72.6825C68.8027 72.6825 71.1598 72.2932 71.5026 73.6844C71.5026 73.6844 72.5776 73.3496 72.9631 74.5322" stroke="#000072" stroke-width="0.5" stroke-miterlimit="10"/>
<path d="M57.6385 71.7438C57.6385 71.7438 59.0514 71.0049 59.4726 72.6837C59.4726 72.6837 60.9358 71.4031 61.5235 72.9393C61.5235 72.9393 63.9192 72.0226 64.6876 73.9445C64.6876 73.9445 67.283 72.9599 68.1268 74.7727C68.1268 74.7727 69.8868 74.3046 70.8471 75.4991C70.8471 75.4991 72.0147 75.0604 72.1741 76.2529" stroke="#000072" stroke-width="0.5" stroke-miterlimit="10"/>
<path d="M56.6261 73.7152C56.6261 73.7152 58.5848 72.2594 58.5815 74.7016C58.5815 74.7016 60.2832 73.4972 60.5206 75.001C60.5206 75.001 63.1696 74.2327 63.8242 76.2522C63.8242 76.2522 66.0297 74.6445 67.1183 77.0983C67.1183 77.0983 69.3875 75.8831 69.9022 77.8857" stroke="#000072" stroke-width="0.5" stroke-miterlimit="10"/>
<path d="M55.9036 76.0538C55.9036 76.0538 57.4173 74.4208 57.9227 76.2524C57.9227 76.2524 59.3164 75.0727 59.8306 76.7475C59.8306 76.7475 62.2685 76.0713 63.0919 77.8859C63.0919 77.8859 65.2802 76.9467 66.3453 78.8124C66.3453 78.8124 68.2372 77.6061 69.2143 79.4429" stroke="#000072" stroke-width="0.5" stroke-miterlimit="10"/>
<path d="M55.2228 77.595C55.2228 77.595 56.7742 76.6349 57.2625 77.8857C57.2625 77.8857 58.6213 76.9465 59.1444 78.3422C59.1444 78.3422 61.8097 77.7938 62.2231 79.4426C62.2231 79.4426 64.6558 78.7465 65.6004 80.3889C65.6004 80.3889 67.4489 79.734 68.519 81.033C68.519 81.033 68.9521 80.7734 68.9512 81.9663" stroke="#000072" stroke-width="0.5" stroke-miterlimit="10"/>
<path d="M54.632 79.0475C54.632 79.0475 56.2898 78.1972 56.626 79.2875C56.626 79.2875 58.4048 78.5745 58.5482 79.7944C58.5482 79.7944 61.5649 79.1114 61.7439 80.8912C61.7439 80.8912 64.4149 80.0911 64.8095 81.967C64.8095 81.967 67.1251 81.014 67.6367 83.1274C67.6367 83.1274 68.5401 82.6991 68.8018 84.001" stroke="#000072" stroke-width="0.5" stroke-miterlimit="10"/>
<path d="M26.1051 58.723C26.1051 58.723 34.6908 72.8408 36.6971 81.9663" stroke="#000072" stroke-width="0.5" stroke-miterlimit="10"/>
<path d="M31.0298 61.4485C31.0298 61.4485 37.444 73.2029 39.5736 80.9819" stroke="#000072" stroke-width="0.5" stroke-miterlimit="10"/>
<path d="M21.9743 60.9635C21.9743 60.9635 29.4515 82.1706 31.9 83.8242" stroke="#000072" stroke-width="0.5" stroke-miterlimit="10"/>
<path d="M21.6756 64.9224C21.6756 64.9224 27.7231 83.8205 29.5271 84.7871" stroke="#000072" stroke-width="0.5" stroke-miterlimit="10"/>
<path d="M22.5148 61.8184C22.5148 61.8184 22.6816 59.6 24.4882 60.8847C24.4882 60.8847 25.2081 59.2955 27.2548 60.6823C27.2548 60.6823 27.7982 59.8313 29.527 60.5241" stroke="#000072" stroke-width="0.5" stroke-miterlimit="10"/>
<path d="M22.0808 66.168C22.0808 66.168 22.2427 64.6069 23.5176 65.2173C23.5176 65.2173 23.9123 63.0542 26.1062 64.5662C26.1062 64.5662 26.5134 62.2909 28.9351 63.6834C28.9351 63.6834 30.457 61.6894 32.2098 63.6834C32.2098 63.6834 33.4924 62.4914 34.429 63.6834" stroke="#000072" stroke-width="0.5" stroke-miterlimit="10"/>
<path d="M21.6756 64.2944C21.6756 64.2944 22.238 63.3442 22.9135 63.684C22.9135 63.684 23.6418 61.618 25.2146 62.5383C25.2146 62.5383 26.2113 61.0407 28.01 62.0122C28.01 62.0122 29.8826 61.1499 31.0303 61.6845" stroke="#000072" stroke-width="0.5" stroke-miterlimit="10"/>
<path d="M21.4706 69.1284C21.4706 69.1284 21.6868 68.078 22.9136 68.6825C22.9136 68.6825 23.0827 67.0944 24.4884 67.915C24.4884 67.915 24.849 65.7348 27.3509 67.0849C27.3509 67.0849 27.6035 64.5409 30.2588 66.1686C30.2588 66.1686 31.4266 64.218 33.1953 65.6247C33.1953 65.6247 33.3924 64.5137 34.7477 65.4586" stroke="#000072" stroke-width="0.5" stroke-miterlimit="10"/>
<path d="M21.6756 71.5815C21.6756 71.5815 22.2353 69.8433 23.6638 70.8934C23.6638 70.8934 23.9592 69.0396 25.4277 70.266C25.4277 70.266 26.5157 68.5619 28.109 69.4006C28.109 69.4006 29.5426 67.089 31.4014 68.4135C31.4014 68.4135 32.7511 66.633 34.2083 67.6842C34.2083 67.6842 34.2602 67.0051 35.6393 67.3479" stroke="#000072" stroke-width="0.5" stroke-miterlimit="10"/>
<path d="M22.0894 73.3057C22.0894 73.3057 22.4739 71.5184 24.2843 72.6834C24.2843 72.6834 25.125 71.4609 26.2203 72.2842C26.2203 72.2842 27.1624 70.2166 29.1091 71.4059C29.1091 71.4059 30.4158 69.5233 32.5146 70.7084C32.5146 70.7084 33.4737 69.1363 35.3214 70.0369C35.3214 70.0369 35.1645 69.1131 36.5677 69.7012" stroke="#000072" stroke-width="0.5" stroke-miterlimit="10"/>
<path d="M22.8002 75.0513C22.8002 75.0513 23.2217 73.4828 24.683 74.27C24.683 74.27 25.5537 72.6287 26.8762 73.8662C26.8762 73.8662 27.4592 71.7794 29.9336 73.2059C29.9336 73.2059 31.1142 71.3845 33.2894 72.2753C33.2894 72.2753 34.1531 70.553 36.1003 71.6065C36.1003 71.6065 36.505 70.7516 37.4882 71.4352" stroke="#000072" stroke-width="0.5" stroke-miterlimit="10"/>
<path d="M22.9136 76.6084C22.9136 76.6084 23.5066 74.6002 25.1264 75.0513C25.1264 75.0513 26.5817 74.2676 27.3154 74.9853C27.3154 74.9853 29.4078 73.413 30.4822 74.5329C30.4822 74.5329 32.6443 72.8235 33.9545 73.9123C33.9545 73.9123 35.431 72.672 36.8762 73.5359C36.8762 73.5359 37.6681 72.6624 38.6462 73.3054" stroke="#000072" stroke-width="0.5" stroke-miterlimit="10"/>
<path d="M39.5745 75.7028C39.5745 75.7028 38.0685 73.7127 37.7191 75.5847C37.7191 75.5847 35.1484 74.0442 34.906 76.2518C34.906 76.2518 32.3809 74.355 31.4928 76.8332C31.4928 76.8332 28.9107 75.4133 28.2544 77.4125C28.2544 77.4125 26.6077 75.6898 26.3533 77.8855C26.3533 77.8855 25.4935 77.557 25.3432 78.4092" stroke="#000072" stroke-width="0.5" stroke-miterlimit="10"/>
<path d="M40.2537 77.4129C40.2537 77.4129 38.8614 75.8751 38.491 77.6186C38.491 77.6186 36.4444 76.272 35.5788 78.0927C35.5788 78.0927 33.3717 76.9772 32.5141 79.0469C32.5141 79.0469 30.1532 77.7303 29.5268 79.9999C29.5268 79.9999 27.9054 79.3434 27.3506 80.9819C27.3506 80.9819 26.517 80.7609 26.1052 81.9663" stroke="#000072" stroke-width="0.5" stroke-miterlimit="10"/>
<path d="M40.5774 78.7314C40.5774 78.7314 39.5267 76.8323 39.0359 79.1968C39.0359 79.1968 37.7319 78.3857 36.2052 80.052C36.2052 80.052 34.2522 79.383 33.1802 80.676C33.1802 80.676 31.6334 80.2504 30.5111 81.3855C30.4494 81.4478 30.3891 81.5149 30.3304 81.5869" stroke="#000072" stroke-width="0.5" stroke-miterlimit="10"/>
<path d="M30.3888 81.5153C30.3888 81.5153 28.9463 81.3842 28.197 82.7295C28.197 82.7295 27.1561 82.7739 26.6755 84.0008C26.195 85.2276 26.45 83.8249 26.45 83.8249" stroke="#000072" stroke-width="0.5" stroke-miterlimit="10"/>
<path fill-rule="evenodd" clip-rule="evenodd" d="M47.6103 8.8411C64.179 8.8411 76.9248 26.0918 76.9248 40.4962C76.9248 54.9009 53.5628 60.7217 47.6103 61.0056C41.6575 61.2896 17.0811 54.4784 17.0811 40.0738C17.0811 25.6692 31.0416 8.8411 47.6103 8.8411Z" fill="#FF850B"/>
<path d="M47.6106 9.54194C31.0873 9.54194 17.7817 26.2449 17.7817 40.0742C17.7817 43.6703 19.4155 47.0521 22.6379 50.1256C29.8156 56.9717 42.9115 60.3135 47.2414 60.3139C47.3604 60.3139 47.4719 60.3114 47.5774 60.3063C50.7145 60.1567 57.9417 58.5417 64.1871 55.4199C69.6787 52.6749 76.2248 47.8577 76.2248 40.4966C76.2248 26.1818 63.7256 9.54194 47.6106 9.54194ZM47.2591 61.7144C42.6142 61.7144 29.2278 58.3467 21.6716 51.1396C18.1612 47.7913 16.3811 44.0684 16.3811 40.0742C16.3811 32.8641 19.8345 24.8289 25.619 18.5801C31.7604 11.9459 39.776 8.14098 47.6106 8.14098C55.4942 8.14098 63.0946 11.9302 69.0119 18.8106C74.4053 25.0818 77.6255 33.1887 77.6255 40.4966C77.6255 46.8897 73.195 52.4835 64.813 56.6731C58.3855 59.886 50.9037 61.5503 47.6439 61.7058C47.5237 61.7115 47.3948 61.7144 47.2591 61.7144Z" fill="#000072"/>
<g opacity="0.5">
<g opacity="0.5">
<path opacity="0.5" fill-rule="evenodd" clip-rule="evenodd" d="M47.6103 8.84268C57.7933 8.84268 66.5312 15.3598 71.7545 23.7265C71.8088 23.9969 71.8612 24.2683 71.9071 24.542C67.1382 17.5492 59.7026 12.9381 51.4678 11.6942C51.9959 11.8937 52.302 12.1307 52.302 12.3851C52.302 13.096 49.9082 13.6724 46.9554 13.6724C44.0029 13.6724 41.6091 13.096 41.6091 12.3851C41.6091 12.1307 41.9147 11.8937 42.443 11.6942C34.208 12.9383 26.7732 17.5497 22.0043 24.542L22.0307 24.3946C27.5295 15.6937 37.0387 8.84268 47.6103 8.84268Z" fill="white"/>
</g>
</g>
<path fill-rule="evenodd" clip-rule="evenodd" d="M76.1375 44.9222C72.0175 56.1089 52.9105 60.7529 47.6097 61.0056C42.3633 61.2559 22.6548 55.9938 18.0502 44.8812C18.4032 38.8283 21.4773 37.1739 27.1623 40.1319C29.5002 41.3481 31.8785 42.6166 33.7629 41.6507C44.5196 36.1356 51.0876 37.1753 58.4502 41.6507C61.8932 43.7438 65.2533 40.6216 67.3613 39.6698C74.0753 36.6373 77.1557 38.7582 76.1375 44.9222Z" fill="white"/>
<g opacity="0.300003">
<g opacity="0.300003">
<path opacity="0.300003" fill-rule="evenodd" clip-rule="evenodd" d="M76.7976 37.9818C76.8809 38.8271 76.9251 39.667 76.9251 40.4972C76.9251 41.0279 76.8898 41.5451 76.8285 42.0527L76.8347 41.901C76.0165 51.5139 56.6649 58.8539 46.2545 59.4465C37.5644 59.9414 20.2079 50.5836 17.2895 41.901C17.295 42.081 17.3042 42.2607 17.3123 42.4401C17.1637 41.6754 17.0814 40.8878 17.0814 40.0748C17.0814 39.4276 17.1107 38.7755 17.1658 38.12L17.2111 37.9796C23.9952 47.7365 35.1242 53.554 47.0054 53.554C58.8853 53.554 70.0135 47.7367 76.7976 37.9818Z" fill="#000072"/>
</g>
</g>
<path fill-rule="evenodd" clip-rule="evenodd" d="M36.8908 33.3781C35.9643 32.9649 35.0158 32.2724 34.0468 31.3019C32.3667 31.3782 31.0226 33.1734 31.0226 35.3766C31.0226 37.6285 32.4261 39.4541 34.1575 39.4541C35.8891 39.4541 37.2927 37.6285 37.2927 35.3766C37.2927 34.6505 37.1467 33.9688 36.8908 33.3781Z" fill="#000072"/>
<path d="M63.201 29.539C62.0702 31.0416 60.9584 32.2034 59.8659 33.0246C58.2585 34.2327 56.5187 34.4441 56.326 33.1137C57.1907 33.0146 58.0916 32.6126 59.0287 31.9083C61.3383 30.172 62.0604 29.0541 63.201 29.539Z" fill="#000072"/>
<path fill-rule="evenodd" clip-rule="evenodd" d="M57.9302 33.3781C58.8567 32.9649 59.8051 32.2724 60.7745 31.3019C62.4546 31.3782 63.7984 33.1734 63.7984 35.3766C63.7984 37.6285 62.3951 39.4541 60.6635 39.4541C58.9318 39.4541 57.5283 37.6285 57.5283 35.3766C57.5283 34.6505 57.6743 33.9688 57.9302 33.3781Z" fill="#000072"/>
<path fill-rule="evenodd" clip-rule="evenodd" d="M59.3677 34.3382C58.8592 34.3382 58.4472 34.7774 58.4472 35.319C58.4472 35.8606 58.8592 36.2998 59.3677 36.2998C59.876 36.2998 60.2879 35.8606 60.2879 35.319C60.2879 34.7774 59.876 34.3382 59.3677 34.3382Z" fill="white"/>
<path fill-rule="evenodd" clip-rule="evenodd" d="M47.0031 36.0919C49.2452 36.0919 51.0625 37.304 51.0625 38.799C51.0625 40.2942 49.2452 41.5063 47.0031 41.5063C44.7611 41.5063 42.9437 40.2942 42.9437 38.799C42.9437 37.304 44.7611 36.0919 47.0031 36.0919Z" fill="#000072"/>
<path d="M50.8849 44.8242C49.4561 44.8242 48.0739 44.2927 47.0133 43.3428C45.8289 44.4219 44.1961 44.9238 42.5912 44.6686C40.727 44.3723 39.146 43.0941 38.4649 41.3329C38.3254 40.972 38.5047 40.5664 38.8654 40.4268C39.2259 40.2874 39.6315 40.4667 39.7711 40.8275C40.2728 42.125 41.4376 43.0667 42.8111 43.285C44.1853 43.5034 45.5842 42.9695 46.4634 41.892C46.5947 41.7311 46.7907 41.6367 46.9983 41.6344C47.2076 41.6347 47.4037 41.7223 47.5386 41.8802C48.4557 42.9552 49.8409 43.5262 51.2503 43.4079C52.658 43.2898 53.9309 42.4952 54.6558 41.2825C54.8541 40.9502 55.2848 40.8419 55.6161 41.0407C55.9479 41.2391 56.0563 41.6693 55.8578 42.0013C54.902 43.6004 53.2236 44.6482 51.3675 44.8039C51.2063 44.8176 51.0453 44.8242 50.8849 44.8242Z" fill="#000072"/>
<path fill-rule="evenodd" clip-rule="evenodd" d="M47.0063 42.3349C48.466 43.7229 49.9002 44.3134 51.3092 44.106C51.6576 53.2548 42.3859 52.8821 42.7015 43.9768C44.4288 44.1961 45.8633 43.6491 47.0063 42.3349Z" fill="#000072"/>
<path d="M43.3986 44.7246C43.4681 47.0557 44.2945 48.8884 45.6712 49.7037C46.5807 50.2422 47.6083 50.2498 48.4911 49.7239C49.809 48.9387 50.567 47.1812 50.6157 44.8445C49.4242 44.8063 48.227 44.2905 47.0416 43.3042C46.0212 44.2489 44.8112 44.7247 43.4304 44.7247C43.4199 44.7247 43.4092 44.7247 43.3986 44.7246ZM47.1105 51.5112C46.3748 51.5113 45.6353 51.3105 44.9578 50.9093C42.9642 49.7285 41.8866 47.1926 42.0016 43.9519L42.0288 43.1853L42.7894 43.2819C44.2848 43.4714 45.4895 43.0111 46.4777 41.8751L46.9581 41.3228L47.4885 41.8272C48.796 43.0702 50.0136 43.5892 51.207 43.4128L51.979 43.2993L52.0087 44.0792C52.1313 47.2978 51.1103 49.794 49.2078 50.9277C48.5545 51.3168 47.8344 51.5112 47.1105 51.5112Z" fill="#000072"/>
<path fill-rule="evenodd" clip-rule="evenodd" d="M47.0832 47.3945C45.8366 47.3945 44.6656 47.9915 43.9334 48.9999C45.6189 51.4011 48.6076 51.4404 50.2179 48.9796C49.4846 47.9833 48.321 47.3945 47.0832 47.3945Z" fill="#FF0066"/>
<path d="M44.8396 49.0162C45.4887 49.7321 46.3053 50.1202 47.1526 50.1123C47.9714 50.099 48.727 49.7124 49.3213 49.0124C48.7291 48.4311 47.9229 48.0951 47.0826 48.0951C46.2389 48.0951 45.432 48.4323 44.8396 49.0162ZM47.109 51.5137C45.6669 51.5137 44.3035 50.7472 43.3598 49.4026L43.0724 48.9933L43.3663 48.5885C44.2274 47.4023 45.6167 46.6941 47.0826 46.6941C48.5367 46.6941 49.9192 47.3933 50.7811 48.5644L51.0694 48.9563L50.8032 49.3634C49.9244 50.7063 48.6021 51.4899 47.1754 51.5131C47.1533 51.5135 47.1311 51.5137 47.109 51.5137Z" fill="#000072"/>
<path fill-rule="evenodd" clip-rule="evenodd" d="M73.5151 25.8389C69.0179 18.405 63.626 13.3719 57.3391 10.7406C69.6713 -6.54543 75.0632 -1.51268 73.5151 25.8389Z" fill="#FF850B"/>
<path d="M58.414 10.4461C63.9334 12.966 68.8054 17.383 72.9272 23.6015C73.6793 6.74814 71.3941 2.26299 69.292 1.52342C67.6875 0.959423 64.5068 2.08099 58.414 10.4461ZM74.0862 28.1357L72.9158 26.2011C68.5178 18.9313 63.1859 13.9469 57.0685 11.3864L56.2592 11.0476L56.7688 10.3332C62.41 2.42616 66.657 -0.889084 69.7565 0.201843C73.7103 1.59298 75.1267 9.75175 74.2141 25.8781L74.0862 28.1357Z" fill="#000072"/>
<path fill-rule="evenodd" clip-rule="evenodd" d="M56.269 26.7435C57.3062 26.3181 58.3518 26.4723 58.6042 27.088C58.8565 27.7037 58.2202 28.5479 57.1833 28.9736C56.1461 29.399 55.1005 29.2445 54.8481 28.6288C54.5958 28.0131 55.2321 27.1689 56.269 26.7435Z" fill="white"/>
<path fill-rule="evenodd" clip-rule="evenodd" d="M38.1982 26.7022C37.161 26.2765 36.1154 26.431 35.863 27.0466C35.6106 27.6624 36.2467 28.5066 37.2839 28.932C38.3208 29.3574 39.3664 29.2032 39.6188 28.5875C39.8712 27.9718 39.2351 27.1275 38.1982 26.7022Z" fill="white"/>
<path fill-rule="evenodd" clip-rule="evenodd" d="M34.6191 34.3382C34.1105 34.3382 33.6986 34.7774 33.6986 35.319C33.6986 35.8606 34.1105 36.2998 34.6191 36.2998C35.1274 36.2998 35.5393 35.8606 35.5393 35.319C35.5393 34.7774 35.1274 34.3382 34.6191 34.3382Z" fill="white"/>
<path fill-rule="evenodd" clip-rule="evenodd" d="M20.9642 26.1929C25.4611 18.7587 30.853 13.726 37.1399 11.0943C24.8076 -6.19168 19.4157 -1.15866 20.9642 26.1929Z" fill="#FF850B"/>
<path d="M25.9357 1.7549C25.6543 1.7549 25.4059 1.80047 25.1869 1.87759C23.0848 2.6172 20.7996 7.10224 21.5517 23.9556C25.6733 17.7373 30.5451 13.3203 36.0647 10.8001C30.8039 3.57744 27.7139 1.7549 25.9357 1.7549ZM20.3929 28.4902L20.265 26.2323C19.3521 10.1059 20.7684 1.94719 24.7221 0.555935C27.8197 -0.533667 32.0683 2.77966 37.7098 10.6872L38.2195 11.4016L37.4101 11.7404C31.2924 14.3012 25.9607 19.2857 21.5633 26.5554L20.3929 28.4902Z" fill="#000072"/>
<g opacity="0.649994">
<g opacity="0.649994">
<path opacity="0.649994" fill-rule="evenodd" clip-rule="evenodd" d="M35.5963 11.8003C36.1052 11.5486 36.6205 11.3138 37.1418 11.0953C29.4986 0.38176 24.5227 -1.75444 22.2111 4.67806C24.6727 0.15481 29.1341 2.52856 35.5955 11.7997L35.5963 11.8003Z" fill="white"/>
</g>
</g>
<path fill-rule="evenodd" clip-rule="evenodd" d="M24.3317 21.1533C26.5238 18.4411 29.0083 16.0934 31.7852 14.1109C25.5602 1.98466 23.0755 4.33206 24.3317 21.1533Z" fill="#000072"/>
<path d="M25.9338 7.19241C25.9032 7.19241 25.8822 7.19651 25.87 7.19994C25.795 7.22107 25.1297 7.49531 24.845 10.5837C24.6532 12.6646 24.6759 15.6193 24.9116 19.3827C26.7217 17.3342 28.724 15.4959 30.8865 13.8985C27.6109 7.63579 26.2522 7.19241 25.9338 7.19241ZM23.7651 22.9688L23.6336 21.2058C22.6777 8.40584 24.0357 6.26122 25.4904 5.85142C27.23 5.36016 29.2997 7.73564 32.4083 13.7912L32.6849 14.3297L32.1921 14.6814C29.4807 16.6171 27.0193 18.9428 24.8763 21.5941L23.7651 22.9688Z" fill="#000072"/>
<g opacity="0.300003">
<g opacity="0.300003">
<path opacity="0.300003" fill-rule="evenodd" clip-rule="evenodd" d="M25.1397 6.89755C22.8681 8.59696 21.4008 13.1948 20.738 20.6906C20.7779 22.412 20.8531 24.2463 20.9633 26.1943C21.2993 25.5865 21.6545 24.9858 22.0298 24.3945L22.0035 24.5419C23.8181 21.7732 25.7701 19.3729 27.8589 17.3407C26.6374 18.493 25.4865 19.7337 24.406 21.0622C24.3848 21.0883 24.3636 21.1141 24.3424 21.1407C24.3405 21.1428 24.3386 21.1453 24.3365 21.1483C24.3346 21.1505 24.333 21.1527 24.331 21.1548C23.7223 13.0045 23.9921 8.25219 25.1397 6.89755ZM69.3372 6.5433C71.6091 8.24295 73.0764 12.8405 73.7388 20.3363C73.6989 22.0577 73.6238 23.8923 73.5138 25.8401C73.1776 25.2323 72.8224 24.6318 72.4471 24.0402L72.4734 24.1877C70.659 21.419 68.707 19.0186 66.618 16.9867C67.8397 18.1391 68.9903 19.3797 70.0709 20.7082C70.0921 20.734 70.1133 20.7601 70.1345 20.7864C70.1363 20.7889 70.1382 20.7913 70.1404 20.794C70.1423 20.7965 70.1439 20.7984 70.1458 20.8008C70.7548 12.6505 70.4848 7.8979 69.3372 6.5433Z" fill="#000072"/>
</g>
</g>
<g opacity="0.649994">
<g opacity="0.649994">
<path opacity="0.649994" fill-rule="evenodd" clip-rule="evenodd" d="M58.8856 11.4458C58.3768 11.1941 57.8615 10.9593 57.3401 10.7411C64.9834 0.0275364 69.9595 -2.10894 72.2711 4.32356C69.8094 -0.199687 65.3478 2.1743 58.8865 11.4455L58.8856 11.4458Z" fill="white"/>
</g>
</g>
<path fill-rule="evenodd" clip-rule="evenodd" d="M70.1465 20.7998C67.9543 18.0873 65.4699 15.7396 62.6929 13.7571C68.918 1.63086 71.4029 3.97849 70.1465 20.7998Z" fill="#000072"/>
<path d="M63.5924 13.5445C65.755 15.1422 67.7576 16.9807 69.567 19.0289C69.8028 15.2655 69.8254 12.3108 69.6336 10.2298C69.3489 7.14143 68.6838 6.86711 68.6088 6.84606C68.4705 6.80769 67.1834 6.67837 63.5924 13.5445ZM70.7134 22.6152L69.6024 21.2404C67.4599 18.5894 64.9987 16.2636 62.2867 14.3274L61.794 13.9758L62.0705 13.4372C65.1789 7.38214 67.2468 5.00679 68.9885 5.49757C70.443 5.90734 71.8012 8.052 70.8451 20.8521L70.7134 22.6152Z" fill="#000072"/>
<path d="M25.9357 1.75498C25.6542 1.75498 25.4059 1.80055 25.1868 1.87767C23.0848 2.61728 20.7994 7.10243 21.5515 23.9558C25.6733 17.7373 30.5451 13.3203 36.0647 10.8002C30.8039 3.57752 27.7139 1.75498 25.9357 1.75498ZM20.3925 28.4902L20.2646 26.2324C19.3519 10.106 20.7684 1.94715 24.7221 0.556013C27.8197 -0.533588 32.0683 2.77974 37.7098 10.6873L38.2195 11.4017L37.4101 11.7405C31.2924 14.3012 25.9606 19.2858 21.5629 26.5555L20.3925 28.4902Z" fill="#000072"/>
<path d="M47.6106 9.54194C31.0873 9.54194 17.7817 26.2449 17.7817 40.0742C17.7817 43.6703 19.4155 47.0521 22.6379 50.1256C29.8156 56.9717 42.9115 60.3135 47.2414 60.3139C47.3604 60.3139 47.4719 60.3114 47.5774 60.3063C50.7145 60.1567 57.9417 58.5417 64.1871 55.4199C69.6787 52.6749 76.2248 47.8577 76.2248 40.4966C76.2248 26.1818 63.7256 9.54194 47.6106 9.54194ZM47.2591 61.7144C42.6142 61.7144 29.2278 58.3467 21.6716 51.1396C18.1612 47.7913 16.3811 44.0684 16.3811 40.0742C16.3811 32.8641 19.8345 24.8289 25.619 18.5801C31.7604 11.9459 39.776 8.14098 47.6106 8.14098C55.4942 8.14098 63.0946 11.9302 69.0119 18.8106C74.4053 25.0818 77.6255 33.1887 77.6255 40.4966C77.6255 46.8897 73.195 52.4835 64.813 56.6731C58.3855 59.886 50.9037 61.5503 47.6439 61.7058C47.5237 61.7115 47.3948 61.7144 47.2591 61.7144Z" fill="#000072"/>
<g opacity="0.559998">
<g opacity="0.559998">
<path opacity="0.559998" fill-rule="evenodd" clip-rule="evenodd" d="M48.3248 37.1774C48.937 37.3389 49.3899 37.6332 49.3367 37.8351C49.2835 38.0368 48.7443 38.0697 48.1321 37.9082C47.5199 37.7469 47.0667 37.4524 47.1199 37.2504C47.1731 37.0487 47.7126 37.0159 48.3248 37.1774Z" fill="white"/>
</g>
</g>
<path d="M32.129 29.539C33.26 31.0416 34.3719 32.2034 35.4644 33.0246C37.0718 34.2327 38.8116 34.4441 39.0042 33.1137C38.1396 33.0146 37.2387 32.6126 36.3013 31.9083C33.9919 30.172 33.2696 29.0541 32.129 29.539Z" fill="#000072"/>
<path d="M58.414 10.4461C63.9334 12.966 68.8054 17.383 72.9272 23.6015C73.6793 6.74814 71.3941 2.26299 69.292 1.52342C67.6875 0.959423 64.5068 2.08099 58.414 10.4461ZM74.0862 28.1357L72.9158 26.2011C68.5178 18.9313 63.1859 13.9469 57.0685 11.3864L56.2592 11.0476L56.7688 10.3332C62.41 2.42616 66.657 -0.889084 69.7565 0.201843C73.7103 1.59298 75.1267 9.75175 74.2141 25.8781L74.0862 28.1357Z" fill="#000072"/>
</svg>
