<svg width="259" height="251" viewBox="0 0 259 251" fill="none" xmlns="http://www.w3.org/2000/svg">
<g opacity="0.1">
<path d="M206.3 67.1144C206.3 67.1144 208.157 69.6123 207.392 73.645C207.392 73.645 210.815 72.018 213.491 73.5859C213.491 73.5859 211.472 70.4882 212.744 66.9044C212.744 66.9044 209.743 68.9197 206.3 67.1144Z" fill="white"/>
</g>
<path d="M49.2303 187.011C49.2303 187.011 51.8703 190.561 50.7821 196.293C50.7821 196.293 55.6481 193.98 59.4511 196.209C59.4511 196.209 56.5807 191.806 58.3888 186.713C58.3888 186.713 54.1235 189.577 49.2303 187.011Z" fill="white"/>
<path d="M214.54 114.226C214.54 114.226 216.398 116.724 215.632 120.757C215.632 120.757 219.056 119.13 221.732 120.698C221.732 120.698 219.712 117.6 220.984 114.016C220.984 114.016 217.983 116.032 214.54 114.226Z" fill="white"/>
<g opacity="0.300003">
<g opacity="0.300003">
<path opacity="0.300003" d="M244.759 168.697C246.023 171.584 210.894 189.758 166.296 209.29C121.697 228.823 84.518 242.316 83.2536 239.429C81.9892 236.542 117.118 218.368 161.717 198.836C206.315 179.303 243.495 165.81 244.759 168.697Z" fill="#000072"/>
</g>
</g>
<path d="M229.113 167.757C227.55 172.91 223.772 177.078 218.863 179.228L108.546 227.542C103.637 229.692 98.0116 229.642 93.1651 227.297C90.4869 226 88.167 224.264 86.2523 222.288C86.249 222.29 86.249 222.29 86.2475 222.286C80.2321 216.088 78.1599 207.516 81.3249 202.72C86.6365 194.661 94.931 198.034 94.931 198.034C94.907 196.257 95.1946 194.58 95.6659 193.046C97.435 187.252 101.797 183.431 101.797 183.431C92.067 168.706 91.8912 151.58 91.8912 151.58C91.8912 151.58 112.091 156.495 138.167 145.075C164.243 133.654 174.329 115.476 174.329 115.476C174.329 115.476 186.796 127.218 191.02 144.355C191.02 144.355 200.252 143.372 206.409 149.211C206.409 149.211 209.555 140.828 219.079 142.389C226.559 143.614 232.687 155.983 229.113 167.757Z" fill="#B11313"/>
<g opacity="0.300003">
<g opacity="0.300003">
<path opacity="0.300003" d="M105.763 210.792C102.413 200.361 95.1065 198.427 95.1065 198.427C95.0824 196.65 95.37 194.973 95.8414 193.439C108.692 199.903 105.763 210.792 105.763 210.792Z" fill="#000072"/>
</g>
</g>
<g opacity="0.300003">
<g opacity="0.300003">
<path opacity="0.300003" d="M208.479 165.81C203.085 156.274 206.619 149.593 206.619 149.593C205.329 148.37 203.902 147.444 202.454 146.75C198.491 160.578 208.479 165.81 208.479 165.81Z" fill="#000072"/>
</g>
</g>
<g opacity="0.300003">
<g opacity="0.300003">
<path opacity="0.300003" d="M212.997 173.816C212.125 173.963 211.286 174.249 210.52 174.691C209.429 175.32 207.543 176.381 204.746 177.867C200.535 180.103 195.286 178.467 193.064 174.202C192.109 172.369 191.747 170.78 191.65 170.282C192.66 175.685 192.54 181.123 192.345 184.162C185.965 187.282 177.83 191.11 167.679 195.633C158.438 176.028 161.715 152.415 161.715 152.415C150.396 174.214 127.615 167.349 127.615 167.349C148.229 182.979 155.03 200.146 155.03 200.146L157.358 200.167C146.221 204.988 137.228 208.648 130.177 211.389C127.811 209.472 123.732 205.873 120.447 201.466C120.759 201.892 121.744 203.328 122.452 205.4C123.974 209.86 121.552 214.687 117.144 216.233C114.153 217.282 112.093 217.949 110.89 218.325C110.047 218.588 109.267 219.011 108.567 219.552C97.3961 228.202 86.7682 222.864 86.4227 222.684C88.3374 224.661 90.6574 226.396 93.3355 227.693C98.1821 230.038 103.807 230.088 108.716 227.938L163.888 203.775L219.06 179.612C223.969 177.462 227.747 173.294 229.31 168.142C230.173 165.294 230.47 162.412 230.316 159.665C230.214 160.04 226.93 171.472 212.997 173.816Z" fill="#000072"/>
</g>
</g>
<g opacity="0.300003">
<g opacity="0.300003">
<path opacity="0.300003" d="M120.457 201.464C120.394 201.378 120.357 201.332 120.357 201.332C120.39 201.377 120.424 201.42 120.457 201.464Z" fill="#000072"/>
</g>
</g>
<g opacity="0.300003">
<g opacity="0.300003">
<path opacity="0.300003" d="M191.65 170.286C191.64 170.231 191.631 170.177 191.621 170.122C191.621 170.122 191.63 170.181 191.65 170.286Z" fill="#000072"/>
</g>
</g>
<path d="M163.366 202.631L218.538 178.468C223.166 176.441 226.651 172.544 228.099 167.777C229.968 161.617 229.141 154.584 225.939 149.422C224.064 146.4 221.559 144.432 219.068 144.024C210.643 142.642 207.872 149.755 207.758 150.058C207.611 150.45 207.28 150.741 206.872 150.834C206.466 150.926 206.039 150.808 205.734 150.52C200.063 145.14 191.426 145.991 191.34 146.001C190.717 146.067 190.138 145.659 189.987 145.046C186.632 131.427 177.828 121.166 174.743 117.891C171.795 122.442 161.112 136.874 138.853 146.623C116.593 156.372 98.7415 154.436 93.3979 153.517C93.7128 158.005 95.2838 171.433 103.018 183.135C103.366 183.661 103.274 184.363 102.803 184.776C102.738 184.833 96.2547 190.635 96.3622 198.42C96.3679 198.84 96.1651 199.234 95.8215 199.469C95.4783 199.705 95.0386 199.752 94.651 199.594C94.3531 199.476 87.2134 196.731 82.5464 203.814C81.1574 205.922 80.9054 209.098 81.8552 212.525C83.4774 218.379 88.0849 223.757 93.8797 226.559C98.3654 228.728 103.592 228.81 108.221 226.783L163.366 202.631ZM219.548 180.775L109.231 229.089C103.937 231.407 97.9517 231.311 92.809 228.824C86.3791 225.714 81.2596 219.722 79.4483 213.185C78.2867 208.994 78.6462 205.169 80.4607 202.415C84.7792 195.862 90.9873 196.188 93.9206 196.8C94.4621 190.317 98.5997 185.441 100.368 183.633C91.1021 168.986 90.8283 152.679 90.8212 151.979C90.8171 151.592 90.99 151.227 91.2898 150.988C91.59 150.748 91.9832 150.661 92.3569 150.752C92.5542 150.8 112.498 155.416 137.842 144.316C163.187 133.217 173.318 115.428 173.418 115.25C173.605 114.914 173.936 114.684 174.314 114.627C174.694 114.569 175.079 114.689 175.36 114.954C175.87 115.434 187.669 126.694 192.15 143.436C194.679 143.363 201.068 143.628 206.199 147.626C207.739 145.056 211.708 140.271 219.454 141.542C222.708 142.076 225.763 144.405 228.056 148.101C231.632 153.865 232.564 161.691 230.489 168.525C228.829 173.992 224.842 178.456 219.548 180.775Z" fill="#000072"/>
<path d="M95.3624 197.198C95.5256 197.229 95.6049 197.251 95.7194 197.278C95.8282 197.303 95.9199 197.333 96.0212 197.361C96.2227 197.417 96.4041 197.489 96.5936 197.556C96.7855 197.619 96.9586 197.706 97.14 197.784C97.322 197.861 97.4982 197.945 97.6689 198.037C98.3656 198.388 99.0085 198.814 99.6183 199.277C100.84 200.203 101.873 201.326 102.772 202.518C103.665 203.72 104.373 205.027 104.96 206.366C105.256 207.035 105.474 207.735 105.718 208.414C105.908 209.117 106.087 209.817 106.232 210.522C106.26 210.656 106.174 210.787 106.041 210.814C105.94 210.834 105.84 210.789 105.786 210.707L105.776 210.692C105.381 210.094 105.031 209.487 104.67 208.891L104.094 208.022C103.898 207.737 103.738 207.432 103.522 207.163C103.101 206.619 102.748 206.037 102.296 205.532C102.081 205.271 101.883 204.999 101.663 204.747L100.988 204.008C100.08 203.041 99.1038 202.164 98.0619 201.413C97.7974 201.233 97.539 201.04 97.2668 200.879L96.864 200.626L96.4515 200.398C96.1815 200.235 95.8975 200.112 95.6234 199.978C95.4859 199.917 95.3454 199.848 95.2118 199.799C95.1464 199.772 95.0741 199.739 95.0139 199.717C94.9596 199.697 94.8715 199.665 94.8635 199.658L94.398 199.267C93.898 198.846 93.829 198.099 94.244 197.599C94.5251 197.26 94.958 197.122 95.3624 197.198Z" fill="#000072"/>
<path d="M207.638 150.269C207.637 150.279 207.601 150.365 207.579 150.419C207.554 150.478 207.53 150.554 207.505 150.62C207.45 150.751 207.406 150.902 207.357 151.044C207.27 151.336 207.168 151.628 207.105 151.938L206.992 152.395L206.905 152.863C206.839 153.172 206.806 153.493 206.758 153.809C206.603 155.084 206.586 156.397 206.681 157.72L206.767 158.717C206.803 159.05 206.869 159.38 206.914 159.714C206.979 160.389 207.167 161.043 207.282 161.721C207.333 162.063 207.449 162.387 207.525 162.724L207.773 163.737C207.966 164.406 208.176 165.075 208.347 165.771L208.351 165.788C208.384 165.921 208.304 166.055 208.171 166.088C208.071 166.112 207.97 166.071 207.912 165.991C207.493 165.406 207.099 164.8 206.712 164.184C206.378 163.544 206.012 162.909 205.721 162.238C205.134 160.898 204.654 159.492 204.377 158.02C204.11 156.551 203.986 155.03 204.133 153.505C204.206 152.742 204.329 151.981 204.543 151.231C204.592 151.043 204.649 150.856 204.716 150.671C204.782 150.485 204.836 150.299 204.919 150.115C204.999 149.93 205.068 149.748 205.164 149.561C205.212 149.468 205.253 149.381 205.308 149.283C205.366 149.181 205.403 149.108 205.491 148.967C205.834 148.414 206.56 148.249 207.112 148.598C207.485 148.834 207.684 149.246 207.666 149.659L207.638 150.269Z" fill="#000072"/>
<path d="M103.052 183.191L103.548 184.071L104.116 185.051C104.311 185.384 104.52 185.713 104.712 186.07C104.907 186.424 105.094 186.797 105.256 187.218L105.257 187.22C105.283 187.286 105.25 187.36 105.184 187.386C105.161 187.395 105.136 187.396 105.113 187.391C104.673 187.3 104.264 187.153 103.883 186.964C103.498 186.78 103.147 186.548 102.797 186.307C102.451 186.061 102.117 185.794 101.8 185.5C101.645 185.349 101.487 185.199 101.342 185.031C101.268 184.949 101.195 184.863 101.125 184.773C101.049 184.676 100.994 184.603 100.902 184.459C100.527 183.873 100.693 183.095 101.273 182.722C101.853 182.349 102.627 182.521 103.002 183.107C103.014 183.126 103.026 183.145 103.036 183.164L103.052 183.191Z" fill="#000072"/>
<path d="M192.413 144.382C192.457 144.548 192.473 144.636 192.493 144.758C192.511 144.871 192.525 144.983 192.535 145.093C192.56 145.314 192.564 145.532 192.569 145.748C192.57 146.18 192.54 146.606 192.486 147.028C192.427 147.448 192.359 147.863 192.232 148.272C192.113 148.679 191.944 149.08 191.713 149.465C191.676 149.526 191.598 149.545 191.538 149.508C191.516 149.495 191.5 149.476 191.489 149.455L191.488 149.453C191.289 149.048 191.142 148.657 191.014 148.274C190.882 147.891 190.782 147.515 190.669 147.146L190.334 146.064L190.024 145.102L190.015 145.076C189.802 144.414 190.161 143.707 190.818 143.496C191.474 143.286 192.18 143.652 192.393 144.314C192.4 144.335 192.407 144.36 192.413 144.382Z" fill="#000072"/>
<path d="M113.604 192.194C113.604 192.194 106.579 190.391 101.977 183.826C101.977 183.826 98.2948 183.61 98.0335 188.674C98.0335 188.674 105.986 200.302 120.355 201.332C120.355 201.332 115.809 195.544 113.604 192.194Z" fill="#0096F2"/>
<path d="M99.3161 188.309C100.635 190.039 107.045 197.768 117.52 199.705C116.093 197.836 114.149 195.241 112.823 193.271C111.148 192.742 105.525 190.636 101.392 185.143C100.684 185.316 99.5582 185.969 99.3161 188.309ZM120.861 202.485C120.681 202.564 120.481 202.6 120.276 202.586C105.474 201.524 97.3454 189.877 97.0067 189.382C96.8498 189.152 96.7725 188.878 96.7869 188.6C96.9502 185.437 98.3272 183.957 99.4539 183.273C100.7 182.515 101.909 182.563 102.043 182.571C102.425 182.593 102.777 182.79 102.998 183.106C107.259 189.186 113.843 190.959 113.909 190.976C114.209 191.054 114.474 191.243 114.646 191.504C116.796 194.771 121.29 200.499 121.335 200.556C121.642 200.947 121.692 201.483 121.463 201.922C121.33 202.178 121.115 202.374 120.861 202.485Z" fill="#000072"/>
<path d="M189.491 158.959C189.491 158.959 192.93 152.573 191.225 144.739C191.225 144.739 193.563 141.886 197.463 145.128C197.463 145.128 200.616 158.858 191.629 170.117C191.629 170.117 190.458 162.851 189.491 158.959Z" fill="#0096F2"/>
<path d="M190.81 159.116C191.36 161.427 191.948 164.614 192.354 166.931C198.033 157.919 196.7 147.968 196.323 145.824C195.181 144.967 194.141 144.666 193.23 144.928C192.974 145.001 192.758 145.112 192.591 145.219C193.819 151.975 191.558 157.527 190.81 159.116ZM192.131 171.271C191.878 171.382 191.588 171.408 191.309 171.332C190.831 171.203 190.472 170.802 190.393 170.311C190.381 170.239 189.219 163.052 188.276 159.257C188.2 158.952 188.24 158.632 188.388 158.357C188.42 158.297 191.581 152.256 190.002 145.002C189.92 144.625 190.014 144.233 190.257 143.937C190.341 143.833 191.126 142.912 192.529 142.51C193.795 142.146 195.817 142.137 198.252 144.162C198.466 144.34 198.615 144.583 198.677 144.854C198.812 145.439 201.86 159.311 192.603 170.909C192.474 171.07 192.312 171.192 192.131 171.271Z" fill="#000072"/>
<path d="M116.468 155.832C116.468 155.832 120.893 160.59 123.918 169.035L132.88 171.883C132.88 171.883 130.234 161.238 123.751 154.275L116.468 155.832Z" fill="#0096F2"/>
<path d="M124.874 168.025L131.002 169.972C129.918 166.68 127.46 160.372 123.312 155.656L118.731 156.635C120.273 158.678 122.836 162.556 124.874 168.025ZM133.382 173.037C133.11 173.156 132.8 173.175 132.507 173.082L123.546 170.235C123.172 170.116 122.873 169.827 122.74 169.456C119.849 161.385 115.597 156.733 115.554 156.687C115.247 156.355 115.139 155.884 115.272 155.453C115.406 155.022 115.76 154.698 116.198 154.603L123.48 153.046C123.909 152.954 124.356 153.096 124.657 153.419C131.288 160.541 133.977 171.139 134.089 171.586C134.198 172.027 134.064 172.492 133.736 172.802C133.63 172.902 133.51 172.98 133.382 173.037Z" fill="#000072"/>
<path d="M160.82 136.407C160.82 136.407 161.316 142.886 165.472 150.836L161.488 159.353C161.488 159.353 155.459 150.19 154.737 140.703L160.82 136.407Z" fill="#0096F2"/>
<path d="M156.051 141.317C156.706 147.575 159.674 153.653 161.358 156.679L164.083 150.853C161.446 145.646 160.334 141.133 159.878 138.614L156.051 141.317ZM161.997 160.504C161.868 160.561 161.729 160.595 161.585 160.605C161.134 160.636 160.701 160.42 160.452 160.04C160.198 159.655 154.233 150.492 153.496 140.789C153.462 140.348 153.661 139.923 154.019 139.67L160.102 135.374C160.469 135.114 160.948 135.076 161.355 135.27C161.762 135.465 162.035 135.865 162.07 136.316C162.078 136.415 162.623 142.681 166.581 150.255C166.764 150.604 166.774 151.019 166.607 151.375L162.623 159.892C162.493 160.17 162.269 160.385 161.997 160.504Z" fill="#000072"/>
<path d="M155.86 202.999C157.766 211.783 150.098 219.541 141.407 217.452C134.606 215.82 125.122 209.428 113.159 191.542C112.015 189.827 110.844 188.005 109.652 186.073L110.934 182.998L119.428 162.602C119.428 162.602 143.687 178.794 152.837 195.344L152.838 195.347C154.259 197.908 155.314 200.479 155.86 202.999Z" fill="#B11313"/>
<g opacity="0.300003">
<g opacity="0.300003">
<path opacity="0.300003" d="M155.859 203.002C157.765 211.786 150.098 219.544 141.407 217.455C134.605 215.823 125.122 209.431 113.159 191.545C106.984 190.716 101.972 183.829 101.972 183.829C95.4365 174.631 93.778 164.24 93.778 164.24C98.7106 176.76 106.129 180.513 108.954 181.524C109.741 181.806 110.427 182.313 110.925 182.989C110.928 182.993 110.931 182.997 110.933 183C121.485 197.377 135.971 214.178 145.258 211.768C154.223 209.44 153.011 196.848 152.838 195.35C154.258 197.911 155.313 200.482 155.859 203.002Z" fill="#000072"/>
</g>
</g>
<path d="M120.214 160.976C122.681 162.077 124.891 163.541 127.008 165.126C128.063 165.924 129.078 166.771 130.09 167.621C131.103 168.472 132.107 169.333 133.1 170.207C137.076 173.701 140.911 177.373 144.49 181.321C148.067 185.262 151.41 189.49 154.043 194.262C155.35 196.648 156.476 199.182 157.171 201.908C157.354 202.572 157.515 203.3 157.594 204.034C157.694 204.764 157.707 205.506 157.692 206.244C157.634 207.722 157.338 209.191 156.823 210.575C155.766 213.332 153.824 215.73 151.326 217.279C150.088 218.07 148.703 218.623 147.274 218.966C145.839 219.292 144.351 219.372 142.893 219.224C142.172 219.133 141.432 219.01 140.754 218.814L139.739 218.524C139.399 218.431 139.08 218.291 138.749 218.176C138.424 218.05 138.089 217.943 137.772 217.802L136.825 217.372C136.182 217.103 135.593 216.75 134.982 216.43C132.577 215.091 130.404 213.441 128.361 211.683C126.301 209.934 124.458 207.985 122.641 206.025C120.875 204.023 119.168 201.975 117.572 199.85C116.776 198.786 115.963 197.735 115.214 196.64C114.46 195.549 113.663 194.487 112.968 193.359C111.543 191.123 110.302 188.768 109.428 186.212C109.378 186.067 109.455 185.91 109.598 185.862C109.698 185.828 109.804 185.855 109.876 185.924L109.882 185.93C110.859 186.868 111.725 187.867 112.545 188.894C113.36 189.924 114.182 190.942 114.935 192.007C115.678 193.08 116.455 194.123 117.218 195.178C117.971 196.242 118.784 197.256 119.578 198.285C121.173 200.337 122.866 202.3 124.605 204.21C126.389 206.071 128.193 207.919 130.166 209.537C132.122 211.173 134.187 212.66 136.372 213.857C136.924 214.139 137.463 214.46 138.033 214.69L138.877 215.065C139.158 215.189 139.449 215.276 139.735 215.385C140.023 215.482 140.306 215.607 140.598 215.682L141.471 215.923C142.051 216.087 142.605 216.168 143.179 216.24C144.32 216.344 145.468 216.273 146.574 216.013C147.673 215.736 148.741 215.307 149.695 214.682C151.626 213.469 153.115 211.581 153.922 209.45C154.321 208.381 154.553 207.25 154.602 206.105C154.611 205.532 154.608 204.957 154.528 204.385C154.469 203.812 154.347 203.252 154.182 202.649C153.584 200.275 152.573 197.957 151.362 195.735C150.146 193.511 148.725 191.373 147.193 189.309C145.663 187.241 144.011 185.25 142.294 183.312C138.855 179.436 135.131 175.79 131.257 172.312C130.289 171.442 129.309 170.583 128.321 169.735C127.335 168.883 126.328 168.058 125.351 167.194C123.39 165.475 121.473 163.696 119.702 161.702L119.696 161.695C119.528 161.507 119.544 161.219 119.73 161.052C119.866 160.929 120.057 160.906 120.214 160.976Z" fill="#000072"/>
<path d="M122.751 204.728C122.443 204.863 122.081 204.873 121.748 204.726C121.116 204.445 120.825 203.704 121.099 203.069C121.349 202.488 127.412 188.743 142.421 180.774C143.027 180.448 143.787 180.687 144.112 181.301C144.437 181.916 144.207 182.676 143.599 182.999C129.386 190.545 123.45 203.949 123.392 204.084C123.262 204.384 123.028 204.607 122.751 204.728Z" fill="#000072"/>
<path d="M168.773 197.346C173.936 204.702 184.837 204.329 189.196 196.525C192.608 190.419 194.341 179.115 189.308 158.193C188.824 156.189 188.279 154.093 187.667 151.907L184.538 150.764L163.788 143.176C163.788 143.176 159.238 171.985 165.196 189.932L165.197 189.936C166.117 192.717 167.291 195.235 168.773 197.346Z" fill="#B11313"/>
<g opacity="0.300003">
<g opacity="0.300003">
<path opacity="0.300003" d="M168.779 197.341C173.942 204.698 184.843 204.324 189.201 196.52C192.614 190.415 194.347 179.11 189.314 158.189C192.892 153.089 191.23 144.735 191.23 144.735C188.901 133.694 182.389 125.43 182.389 125.43C188.246 137.544 185.973 145.542 184.801 148.303C184.474 149.073 184.382 149.921 184.541 150.745C184.542 150.75 184.543 150.755 184.544 150.759C187.954 168.264 190.479 190.303 182.41 195.494C174.62 200.504 166.187 191.074 165.203 189.931C166.123 192.712 167.296 195.231 168.779 197.341Z" fill="#000072"/>
</g>
</g>
<path d="M162.949 142.761C163.213 145.414 163.221 148.03 163.154 150.637C163.127 151.941 163.05 153.241 163.007 154.543C162.961 155.844 162.928 157.146 162.911 158.448C162.84 163.654 162.994 168.864 163.511 174.019C163.771 176.595 164.113 179.16 164.596 181.686C165.074 184.212 165.681 186.706 166.492 189.108C167.304 191.505 168.322 193.82 169.661 195.869C169.992 196.4 170.321 196.869 170.702 197.301C171.068 197.747 171.489 198.14 171.916 198.521C172.791 199.261 173.78 199.858 174.836 200.29C176.949 201.142 179.346 201.328 181.548 200.731C182.653 200.454 183.693 199.96 184.642 199.34C185.583 198.703 186.414 197.908 187.111 196.999C187.447 196.528 187.764 196.066 188.037 195.529L188.451 194.723C188.594 194.458 188.694 194.165 188.818 193.888C188.932 193.604 189.065 193.331 189.165 193.04L189.462 192.165C189.679 191.59 189.808 190.977 189.976 190.38C190.578 187.962 190.885 185.436 191.009 182.89C191.158 180.342 191.023 177.763 190.865 175.19C190.641 172.616 190.346 170.041 189.919 167.477C189.702 166.196 189.508 164.911 189.236 163.637C188.979 162.36 188.739 161.081 188.454 159.808C188.181 158.532 187.991 157.237 187.787 155.94C187.588 154.642 187.441 153.328 187.414 151.973L187.414 151.965C187.411 151.812 187.531 151.687 187.683 151.685C187.788 151.684 187.881 151.743 187.929 151.83C189.215 154.207 190.105 156.716 190.781 159.278C191.139 160.555 191.38 161.861 191.67 163.155C191.967 164.447 192.187 165.758 192.43 167.064C192.909 169.678 193.256 172.322 193.531 174.978C193.739 177.642 193.922 180.318 193.81 183.018C193.717 185.712 193.456 188.428 192.809 191.103C192.63 191.769 192.49 192.442 192.252 193.097L191.925 194.084C191.814 194.413 191.666 194.732 191.538 195.056C191.398 195.377 191.285 195.706 191.122 196.019L190.647 196.962C190.331 197.593 189.92 198.22 189.498 198.812C188.618 199.984 187.55 201.024 186.337 201.857C185.116 202.674 183.771 203.318 182.35 203.69C179.517 204.476 176.438 204.278 173.695 203.185C172.329 202.625 171.048 201.846 169.923 200.887C169.37 200.397 168.834 199.885 168.365 199.316C167.879 198.76 167.453 198.148 167.089 197.563C165.558 195.204 164.459 192.658 163.591 190.08C161.87 184.908 161.029 179.585 160.559 174.283C160.084 168.975 159.986 163.666 160.114 158.376C160.145 157.053 160.193 155.731 160.255 154.41C160.316 153.089 160.382 151.768 160.511 150.452C160.782 147.821 161.204 145.204 162.068 142.645C162.148 142.407 162.405 142.281 162.642 142.363C162.816 142.424 162.931 142.579 162.948 142.751L162.949 142.761Z" fill="#000072"/>
<path d="M192.501 174.181C192.223 174.302 191.901 174.323 191.591 174.214C191.453 174.166 177.576 169.439 162.393 174.768C161.743 174.996 161.028 174.649 160.797 173.993C160.566 173.338 160.905 172.618 161.556 172.393C177.59 166.766 191.804 171.631 192.401 171.841C193.054 172.07 193.402 172.788 193.178 173.443C193.06 173.787 192.808 174.046 192.501 174.181Z" fill="#000072"/>
<path d="M136.747 141.742C166.639 128.65 172.737 110.277 172.737 110.277C172.737 110.277 173.732 111.194 174.681 112.7C176.251 115.194 176.301 118.364 174.871 120.923C171.729 126.548 162.728 138.586 139.753 148.648C116.778 158.71 101.827 157.162 95.5621 155.657C92.7121 154.972 90.4156 152.786 89.6478 149.941C89.1841 148.222 89.1853 146.87 89.1853 146.87C89.1853 146.87 106.824 154.847 136.716 141.755" fill="#751313"/>
<g opacity="0.300003">
<g opacity="0.300003">
<path opacity="0.300003" d="M174.305 112.13C174.653 113.972 174.357 115.916 173.418 117.596C170.276 123.221 161.275 135.26 138.3 145.322C115.325 155.384 100.374 153.835 94.109 152.33C92.2376 151.881 90.6082 150.781 89.4902 149.275C89.5367 149.489 89.5898 149.711 89.6517 149.941C90.4195 152.786 92.716 154.972 95.5659 155.657C101.831 157.162 116.782 158.71 139.757 148.648C162.732 138.586 171.733 126.548 174.875 120.923C176.304 118.364 176.255 115.194 174.684 112.7C174.558 112.499 174.43 112.309 174.305 112.13Z" fill="#000072"/>
</g>
</g>
<path d="M140.26 149.801C117.316 159.849 102.231 158.549 95.2813 156.879C91.949 156.078 89.3291 153.543 88.444 150.262C87.9418 148.402 87.9373 146.922 87.9374 146.86C87.9378 146.435 88.1516 146.04 88.5059 145.811C88.8592 145.581 89.3066 145.548 89.693 145.723C89.863 145.799 107.261 153.281 136.213 140.602L137.223 142.908C112.496 153.738 96.0981 150.43 90.6507 148.732C90.7044 149.009 90.7715 149.307 90.8553 149.618C91.499 152.003 93.4116 153.849 95.8468 154.434C102.493 156.03 116.97 157.252 139.25 147.494C161.53 137.737 170.449 126.268 173.783 120.301C175.004 118.115 174.945 115.458 173.628 113.367C173.457 113.095 173.283 112.843 173.115 112.615C170.67 117.771 161.981 132.065 137.254 142.895L136.244 140.588C165.294 127.865 171.494 110.05 171.554 109.871C171.687 109.469 172.015 109.163 172.423 109.058C172.832 108.953 173.267 109.064 173.58 109.352C173.625 109.394 174.71 110.401 175.737 112.032C177.548 114.907 177.634 118.552 175.963 121.544C172.478 127.784 163.204 139.752 140.26 149.801Z" fill="#000072"/>
<g opacity="0.3">
<path d="M8.27037 94.3209C8.27037 94.3209 10.128 96.8189 9.3623 100.852C9.3623 100.852 12.7861 99.2246 15.4621 100.792C15.4621 100.792 13.4423 97.6948 14.7146 94.1111C14.7146 94.1111 11.7134 96.1263 8.27037 94.3209Z" fill="white"/>
</g>
<path d="M93.4803 156.608L130.45 190.868" stroke="#000072" stroke-miterlimit="10"/>
<path d="M176.293 170.792L176.575 120.219" stroke="#000072" stroke-miterlimit="10"/>
<path fill-rule="evenodd" clip-rule="evenodd" d="M141.45 156.202C141.487 156.307 141.465 156.426 141.468 156.544C141.471 156.658 141.481 156.778 141.491 156.895C141.518 157.2 141.55 157.498 141.708 157.839C142.03 157.746 142.4 157.548 142.657 157.389C142.836 157.391 142.978 157.453 143.149 157.467C143.067 157.35 143.181 157.271 143.272 157.187C143.249 157.264 143.192 157.334 143.263 157.428C143.338 157.43 143.315 157.349 143.362 157.317C143.457 157.342 143.545 157.3 143.595 157.215C143.651 157.2 143.661 157.26 143.721 157.239C143.77 157.13 143.618 157.101 143.561 157.061C143.679 157.054 143.807 157.03 143.845 157.151C143.936 157.056 144.022 156.884 144.099 156.758C144.403 156.674 144.777 156.533 145.104 156.363C144.84 155.791 144.443 155.436 144.049 155.075C144.102 155.046 144.123 155.096 144.147 155.111C144.485 155.326 144.819 155.595 145.13 155.899C145.176 155.944 145.244 156.001 145.3 156.062C145.349 156.116 145.441 156.206 145.446 156.247C145.457 156.335 145.282 156.442 145.274 156.525C145.118 156.482 144.801 156.653 144.485 156.78C144.396 156.816 144.27 156.851 144.22 156.885C144.111 156.961 144.111 157.105 144.078 157.196C144.251 157.13 144.335 156.958 144.481 156.884C144.574 156.836 144.735 156.825 144.867 156.794C145.25 156.703 145.669 156.585 146.022 156.514C145.707 155.744 145.146 155.233 144.538 154.883C145.075 155.078 145.515 155.388 145.922 155.801C145.992 155.872 146.056 155.942 146.116 156.021C146.201 156.132 146.269 156.284 146.402 156.336C146.325 156.472 146.219 156.601 146.135 156.735C145.737 156.744 144.997 156.829 144.464 157.106C144.336 157.172 144.24 157.268 144.17 157.37C144.358 157.343 144.476 157.296 144.699 157.195C144.755 157.169 144.828 157.118 144.874 157.107C144.925 157.094 145.031 157.129 145.12 157.146C145.636 157.246 146.079 157.291 146.645 157.302C146.822 157.306 146.935 157.338 147.064 157.175C147.485 158.062 147.43 158.877 147.272 159.669C147.254 159.761 147.259 159.857 147.199 159.949C147.29 159.292 147.265 158.568 146.949 157.846C146.915 157.771 146.895 157.667 146.845 157.61C146.774 157.528 146.514 157.522 146.354 157.497C145.9 157.427 145.548 157.392 145.063 157.352C144.967 157.344 144.878 157.316 144.807 157.328C144.733 157.341 144.626 157.383 144.547 157.408C144.449 157.439 144.358 157.475 144.278 157.503C144.479 157.549 144.781 157.583 145.04 157.599C145.089 157.606 145.115 157.556 145.159 157.535C145.672 158.569 146.011 159.653 145.918 160.612C145.895 160.841 145.861 161.072 145.739 161.289C146.006 160.303 145.501 159.032 144.899 157.988C144.991 157.859 144.91 157.82 144.759 157.778C144.593 157.732 144.313 157.682 144.149 157.695C144.161 157.749 144.207 157.786 144.253 157.819C144.299 157.852 144.375 157.865 144.403 157.9C144.461 157.976 144.492 158.184 144.51 158.294C144.568 158.658 144.546 159.095 144.49 159.408C144.431 159.428 144.44 159.339 144.394 159.338C144.334 159.367 144.402 159.42 144.381 159.456C144.094 159.317 143.771 159.019 143.535 158.721C143.45 158.614 143.337 158.49 143.318 158.375C143.303 158.284 143.399 158.153 143.343 158.059C143.226 158.134 143.147 158.272 143.079 158.39C143.011 158.507 142.942 158.632 142.908 158.747C142.934 158.785 142.996 158.766 143.028 158.796C143.424 159.946 143.974 161.194 144.898 161.646C144.831 161.668 144.776 161.625 144.733 161.605C143.892 161.228 143.317 160.331 142.817 159.362C142.707 159.148 142.598 158.939 142.545 158.703C142.536 158.652 142.637 158.689 142.664 158.639C142.832 158.432 142.971 158.219 143.124 158.008C142.953 158.106 142.756 158.185 142.614 158.3C142.491 158.399 142.383 158.572 142.284 158.704C141.98 159.107 141.663 159.539 141.436 159.945C141.737 160.82 142.315 161.379 142.914 161.826C142.14 161.384 141.368 160.853 140.98 159.839C141.219 159.88 141.416 159.558 141.532 159.417C141.856 159.025 142.181 158.56 142.402 158.19C142.645 158.111 142.91 157.973 143.09 157.854C142.754 157.747 142.179 158.127 141.841 158.367C141.615 158.529 141.415 158.706 141.301 158.852C141.13 158.849 140.981 158.808 140.817 158.793C140.84 158.582 140.737 158.29 140.727 158.065C140.703 157.515 140.803 156.975 140.981 156.441C141.004 156.518 140.958 156.612 140.945 156.694C140.846 157.287 140.899 157.947 141.183 158.621C141.479 158.433 141.831 158.206 142.176 157.972C142.288 157.896 142.395 157.795 142.49 157.756C142.644 157.693 142.835 157.738 143.007 157.665C142.927 157.594 142.822 157.564 142.71 157.547C142.436 157.693 142.105 157.796 141.866 157.939C141.842 157.953 141.813 157.978 141.783 158.009C141.785 158.006 141.718 158.083 141.731 158.077C141.673 158.102 141.474 158.026 141.403 158.04C141.281 157.4 141.374 156.803 141.45 156.202Z" fill="#000072"/>
<path fill-rule="evenodd" clip-rule="evenodd" d="M140.261 149.8L147.424 166.156L140.261 149.8Z" fill="#000072"/>
<path d="M140.261 149.8L147.424 166.156" stroke="#000072" stroke-miterlimit="10"/>
<path d="M135.15 151.906C135.15 151.906 141.909 164.914 141.643 167.857" stroke="#000072" stroke-miterlimit="10"/>
<path d="M131.032 153.403C131.032 153.403 135.756 158.722 136.52 168.367" stroke="#000072" stroke-miterlimit="10"/>
<path d="M144.879 147.778C144.879 147.778 149.147 160.058 152.265 163.51" stroke="#000072" stroke-miterlimit="10"/>
<path d="M149.472 145.327C149.472 145.327 152.497 158.032 156.887 159.447" stroke="#000072" stroke-miterlimit="10"/>
<path d="M127.9 157.579C127.9 157.579 129.06 154.769 132.542 155.547C132.542 155.547 133.075 153.027 136.315 154.209C136.315 154.209 136.515 151.274 141.112 151.793C141.112 151.793 141.785 149.119 145.435 149.9C145.435 149.9 146.646 146.728 150.123 147.715C150.123 147.715 151.306 144.216 154.256 145.587" stroke="#000072" stroke-miterlimit="10"/>
<path d="M142.181 154.984C142.086 154.964 141.994 154.946 141.903 154.932C138.699 154.411 137.677 157.009 137.677 157.009C134.975 155.88 134.106 158.573 134.106 158.573C129.742 156.444 129.672 160.515 129.672 160.515" stroke="#000072" stroke-miterlimit="10"/>
<path d="M142.125 155.05C142.125 155.05 143.595 152.212 146.796 153.005C146.796 153.005 148.125 149.706 151.205 151.195C151.205 151.195 153.201 147.523 155.336 149.33" stroke="#000072" stroke-miterlimit="10"/>
<path d="M132.15 166.177C132.15 166.177 132.653 162.296 136.057 164.777C136.057 164.777 138.479 160.818 140.708 163.888C140.708 163.888 142.947 161.142 146.033 162.696C146.033 162.696 147.066 159.236 150.386 160.076C150.386 160.076 150.35 155.492 154.453 157.244C154.453 157.244 154.768 153.27 157.495 154.264" stroke="#000072" stroke-miterlimit="10"/>
<path d="M132.769 168.095C132.769 168.095 134.097 164.579 136.378 166.925C136.378 166.925 139.152 163.826 141.365 166.246C141.365 166.246 144.116 162.782 146.935 165.162C146.935 165.162 148.171 162.219 151.318 162.472C151.318 162.472 152.103 157.894 155.732 158.804C155.732 158.804 156.204 154.637 158.264 156.2" stroke="#000072" stroke-miterlimit="10"/>
<path d="M123.392 204.083C123.392 204.083 129.102 188.101 143.06 183.29L150.284 191.444C150.284 191.444 153.146 206.993 130.185 211.388L123.392 204.083Z" fill="#000072"/>
<path d="M123.392 204.083C123.392 204.083 129.102 188.101 143.06 183.29L150.284 191.444C150.284 191.444 153.146 206.993 130.185 211.388L123.392 204.083Z" stroke="#000072" stroke-miterlimit="10"/>
<path d="M164.599 187.955L161.839 173.108L178.625 171.167L189.654 172.356L191.354 176.237L192.356 184.159C192.356 184.159 179.696 195.568 164.599 187.955Z" fill="#000072"/>
<path d="M164.599 187.955L161.839 173.108L178.625 171.167L189.654 172.356L191.354 176.237L192.356 184.159C192.356 184.159 179.696 195.568 164.599 187.955Z" stroke="#000072" stroke-miterlimit="10"/>
<path d="M81.8539 202.811L106.298 227.625" stroke="#000072" stroke-miterlimit="10"/>
<path d="M80.5414 207.87C80.5414 207.87 88.5517 220.803 102.409 229.06" stroke="#000072" stroke-miterlimit="10"/>
<path d="M85.9728 199.639C85.9728 199.639 101.546 210.983 109.905 226.33" stroke="#000072" stroke-miterlimit="10"/>
<path d="M92.186 198.285C92.186 198.285 102.336 206.776 113.677 224.392" stroke="#000072" stroke-miterlimit="10"/>
<path d="M82.1562 214.836C82.1562 214.836 80.8419 211.774 83.5108 212.015C83.5108 212.015 81.9733 206.327 86.9728 208.176C86.9728 208.176 84.7325 202.699 91.0683 203.796C91.0683 203.796 90.7277 199.206 95.2154 201.445C95.2154 201.445 96.3184 199.992 98.0612 201.415" stroke="#000072" stroke-miterlimit="10"/>
<path d="M81.7031 209.584C81.7031 209.584 80.7284 205.306 84.3037 205.299C84.3037 205.299 83.477 201.794 87.9089 201.139C87.9089 201.139 87.562 198.761 93.4481 199.416" stroke="#000072" stroke-miterlimit="10"/>
<path d="M83.2812 216.277C83.2812 216.277 82.1073 213.145 85.333 214.269C85.333 214.269 83.7362 208.657 89.2379 210.314C89.2379 210.314 87.074 205.082 93.0204 205.97C93.0204 205.97 93.4678 202.323 97.5627 203.536C97.5627 203.536 97.4366 201.795 99.5887 202.649" stroke="#000072" stroke-miterlimit="10"/>
<path d="M84.4316 218.901C84.4316 218.901 84.0743 215.552 87.7395 216.99C87.7395 216.99 87.1946 211.505 91.9525 213.295C91.9525 213.295 90.488 206.296 96.5063 208.907C96.5063 208.907 95.3091 204.443 99.9184 206.115C99.9184 206.115 99.0396 203.437 101.658 204.749" stroke="#000072" stroke-miterlimit="10"/>
<path d="M86.1953 220.777C86.1953 220.777 86.0003 217.975 89.2857 218.609C89.2857 218.609 90.3546 213.583 94.0722 215.219C94.0722 215.219 94.9715 209.919 98.9201 211.918C98.9201 211.918 98.5697 207.468 102.399 208.996C102.399 208.996 102.751 207.126 104.09 208.024" stroke="#000072" stroke-miterlimit="10"/>
<path d="M88.3594 223.228C88.3594 223.228 88.7288 219.92 91.3694 220.642C91.3694 220.642 91.7609 216.886 96.5823 217.761C96.5823 217.761 96.5709 212.913 101.564 214.391C101.564 214.391 101.365 210.348 105.05 212.479C105.05 212.479 103.586 209.113 105.914 210.032" stroke="#000072" stroke-miterlimit="10"/>
<path d="M90.9355 226.066L90.5647 225.219C90.5647 225.219 90.2344 221.684 93.5633 222.627C93.5633 222.627 94.8101 218.599 98.4705 219.682C98.4705 219.682 99.6351 214.824 103.408 216.638C103.408 216.638 103.516 212.791 107.142 214.988" stroke="#000072" stroke-miterlimit="10"/>
<path d="M93.293 226.268C93.293 226.268 92.6682 224.583 95.3581 224.129C95.3581 224.129 97.0865 221.005 100.481 221.725C100.481 221.725 100.875 217.665 105.051 218.783C105.051 218.783 106.08 215.303 108.488 216.814" stroke="#000072" stroke-miterlimit="10"/>
<path d="M95.5391 227.728C95.5391 227.728 95.8461 225.88 98.0059 226.149C98.0059 226.149 99.2768 222.997 102.485 223.752C102.485 223.752 103.04 220.447 106.676 221.058C106.676 221.058 107.442 217.931 110.017 218.943" stroke="#000072" stroke-miterlimit="10"/>
<path d="M98.0332 228.371C98.0332 228.371 97.6607 226.72 99.9051 227.471C99.9051 227.471 101.25 225.433 104.186 225.676C104.186 225.676 106.058 222.905 108.253 223.48C108.253 223.48 109.669 220.945 111.749 221.861" stroke="#000072" stroke-miterlimit="10"/>
<path d="M101.206 228.247C101.206 228.247 101.875 226.378 105.402 226.721C105.402 226.721 106.537 225.082 108.109 224.796C108.334 224.755 108.567 224.742 108.808 224.765" stroke="#000072" stroke-miterlimit="10"/>
<path d="M109.199 225.07C109.199 225.07 110.084 223.172 112.914 222.973" stroke="#000072" stroke-miterlimit="10"/>
<path d="M105.72 209.588C105.722 210.762 114.182 225.54 114.182 225.54L134.984 216.43L134.038 215.476L125.294 208.422L118.568 201.145C111.416 203.129 97.8463 190.121 97.8463 190.121L95.3632 197.198L97.7162 199.425L102.149 203.579L105.72 209.588Z" fill="#000072"/>
<path d="M217.652 142.477L220.838 177.46" stroke="#000072" stroke-miterlimit="10"/>
<path d="M221.988 145.018C221.988 145.018 228.709 165.289 223.621 176.798" stroke="#000072" stroke-miterlimit="10"/>
<path d="M213.646 144.009C213.646 144.009 214.069 163.741 217.006 179.359" stroke="#000072" stroke-miterlimit="10"/>
<path d="M208.562 147.983C208.562 147.983 207.702 159.678 214.602 182.518" stroke="#000072" stroke-miterlimit="10"/>
<path d="M225.935 149.424C225.935 149.424 224.203 146.964 223.259 149.545C223.259 149.545 220.418 145.036 218.292 149.519C218.292 149.519 215.521 145.83 213.894 150.311C213.894 150.311 209.828 147.406 208.63 152.616C208.63 152.616 207.591 151.885 206.752 153.812" stroke="#000072" stroke-miterlimit="10"/>
<path d="M227.309 152.078C227.309 152.078 225.504 149.711 223.991 152.717C223.991 152.717 221.157 150.001 218.668 153.629C218.668 153.629 216.393 150.618 213.796 154.366C213.796 154.366 211.624 152.266 208.879 155.636C208.879 155.636 207.341 154.381 206.629 156.792" stroke="#000072" stroke-miterlimit="10"/>
<path d="M228.704 155.255C228.704 155.255 226.099 152.995 224.592 155.857C224.592 155.857 221.073 153.712 219.027 157.552C219.027 157.552 216.524 155.054 214.418 158.43C214.418 158.43 211.423 155.779 209.259 159.527C209.259 159.527 207.906 158.031 206.221 160.5" stroke="#000072" stroke-miterlimit="10"/>
<path d="M229.271 158.076C229.271 158.076 227.236 155.606 225.1 159.33C225.1 159.33 221.36 156.652 219.317 160.741C219.317 160.741 216.311 157.661 214.683 161.966C214.683 161.966 212.439 159.372 209.928 163.19C209.928 163.19 208.385 161.066 207.77 163.737C207.154 166.409 207.357 163.873 207.357 163.873" stroke="#000072" stroke-miterlimit="10"/>
<path d="M229.646 161.249C229.646 161.249 227.123 158.6 225.387 162.308C225.387 162.308 222.496 160.509 219.586 163.719C219.586 163.719 216.234 162.025 214.857 165.789C214.857 165.789 211.947 163.85 210.66 167.09C210.66 167.09 207.838 163.052 207.577 168.264" stroke="#000072" stroke-miterlimit="10"/>
<path d="M228.872 164.19C228.872 164.19 227.543 161.344 225.514 164.99C225.514 164.99 222.274 163.045 219.908 167.244C219.908 167.244 216.728 165.175 215.492 169.375C215.492 169.375 212.502 167.33 211.515 171.01C211.515 171.01 209.391 166.347 208.059 171.314" stroke="#000072" stroke-miterlimit="10"/>
<path d="M228.506 167.253C228.506 167.253 227.366 165.882 225.467 168.158C225.467 168.158 221.953 167.315 220.198 170.405C220.198 170.405 217.757 168.929 215.839 172.049C215.839 172.049 212.699 171.048 211.978 173.642C211.978 173.642 210.552 170.014 208.446 174.201" stroke="#000072" stroke-miterlimit="10"/>
<path d="M227.59 169.926C227.59 169.926 226.441 168.317 225.199 170.973C225.199 170.973 222.227 170.422 220.473 173.428C220.473 173.428 217.228 172.918 216.307 175.252C216.307 175.252 213.512 173.628 212.71 176.828C212.71 176.828 210.76 173.917 210.114 177.303" stroke="#000072" stroke-miterlimit="10"/>
<path d="M226.444 171.514C226.444 171.514 225.269 171.108 224.92 172.594C224.92 172.594 221.135 173.068 220.672 175.648C220.672 175.648 218.54 174.696 216.655 177.407C216.655 177.407 214.373 175.622 213.508 178.785C213.508 178.785 211.107 176.135 210.518 180.095" stroke="#000072" stroke-miterlimit="10"/>
<path d="M193.282 168.124L197.12 158.696L198.438 147.393L198.214 145.111L204.789 148.112L206.209 150.411L205.016 154.2L205.185 158.138L206.383 162.387L207.325 164.538L207.908 165.993C207.908 165.993 210.38 177.852 213.424 181.612L193.285 191.039L192.066 190.062L192.537 182.088L192.401 171.842L193.282 168.124Z" fill="#000072"/>
<path d="M171.084 127.607C171.084 127.607 168.761 166.648 170.832 176.356" stroke="#000072" stroke-miterlimit="10"/>
<path d="M166.957 132.334C166.957 132.334 165.116 171.479 167.717 173.584" stroke="#000072" stroke-miterlimit="10"/>
<path d="M181.397 123.917C181.397 123.917 183.862 162.501 181.635 172.745" stroke="#000072" stroke-miterlimit="10"/>
<path d="M162.437 140.087C162.437 140.087 164.399 134.539 166.748 137.424C166.748 137.424 167.613 132.665 170.732 134.3C170.732 134.3 173.825 128.296 176.505 132.323C176.505 132.323 179.351 126.941 181.823 131.597C181.823 131.597 183.21 130.45 184.944 134.513C184.944 134.513 187.744 137.032 187.866 138.434" stroke="#000072" stroke-miterlimit="10"/>
<path d="M166.898 133.745C166.898 133.745 168.632 129.852 170.922 130.598C170.922 130.598 173.066 124.926 176.537 127.343C176.537 127.343 180.077 124.977 181.661 128.41C181.661 128.41 184.078 129.697 184.292 130.516C184.292 130.516 187.796 143.36 187.532 152.02C187.532 152.02 189.861 169.618 185.813 172.882" stroke="#000072" stroke-miterlimit="10"/>
<path d="M162.944 142.754C162.944 142.754 163.978 138.838 166.619 141.144C166.619 141.144 168.561 136.372 170.139 139.603C170.139 139.603 174.339 134.659 176.475 137.619C176.475 137.619 179.176 133.056 182.096 137.556C182.096 137.556 185.261 134.465 186.219 139.925C186.219 139.925 188.079 138.449 189.041 141.725" stroke="#000072" stroke-miterlimit="10"/>
<path d="M162.456 147.296C162.456 147.296 164.425 142.668 166.476 146.202C166.476 146.202 168.325 141.591 170.268 145.545C170.268 145.545 174.753 140 176.438 144.208C176.438 144.208 179.919 141.131 182.357 144.719C182.357 144.719 185.341 142.008 187.149 145.145C187.149 145.145 189.659 143.852 190.339 146.062" stroke="#000072" stroke-miterlimit="10"/>
<path d="M162.436 152.101C162.436 152.101 163.113 146.618 166.578 150.256C166.578 150.256 167.835 147.439 169.963 149.718C169.963 149.718 174.295 145.782 176.407 149.394C176.407 149.394 178.891 145.708 182.113 148.399C182.113 148.399 185.81 145.988 187.43 148.109C187.43 148.109 188.998 146.741 190.534 148.473" stroke="#000072" stroke-miterlimit="10"/>
<path d="M162.525 155.068C162.525 155.068 164.363 152.76 166.33 155.313C166.33 155.313 167.849 152.043 169.991 154.229C169.991 154.229 173.359 150.89 176.095 153.6C176.095 153.6 179.751 149.997 182.533 152.465C182.533 152.465 185.161 150.362 187.679 151.689C187.679 151.689 189.326 150.075 190.487 151.992" stroke="#000072" stroke-miterlimit="10"/>
<path d="M162.287 159.181C162.287 159.181 164.513 155.246 166.333 159.416C166.333 159.416 168.312 156.099 169.837 158.49C169.837 158.49 173.745 155.216 176.362 158.177C176.362 158.177 178.892 153.799 182.567 157.18C182.567 157.18 185.498 153.425 187.866 156.461" stroke="#000072" stroke-miterlimit="10"/>
<path d="M162.809 163.709C162.809 163.709 164.149 159.8 166.373 162.551C166.373 162.551 167.85 159.506 169.971 161.982C169.971 161.982 173.591 159.022 176.34 161.509C176.34 161.509 179.34 158.284 182.537 160.679C182.537 160.679 184.836 157.219 187.862 159.629" stroke="#000072" stroke-miterlimit="10"/>
<path d="M162.813 166.841C162.813 166.841 164.72 164.054 166.481 165.826C166.481 165.826 168.078 163.217 170.006 165.211C170.006 165.211 174.106 162.3 176.037 164.807C176.037 164.807 179.633 161.817 182.459 163.92C182.459 163.92 185.097 161.432 187.878 162.856C187.878 162.856 188.417 162.092 189.307 164.128" stroke="#000072" stroke-miterlimit="10"/>
<path d="M162.898 169.757C162.898 169.757 165.067 167.078 166.451 168.689C166.451 168.689 168.927 166.154 170.082 168.13C170.082 168.13 174.675 164.729 176.308 167.634C176.308 167.634 180.229 164.289 182.299 167.198C182.299 167.198 185.504 163.856 187.949 167.083C187.949 167.083 189.157 165.683 190.573 167.711" stroke="#000072" stroke-miterlimit="10"/>
<path d="M99.4437 156.214C99.4437 156.214 124.52 173.944 134.735 188.029" stroke="#000072" stroke-miterlimit="10"/>
<path d="M109.814 157.215C109.814 157.215 129.45 172.521 138.867 184.217" stroke="#000072" stroke-miterlimit="10"/>
<path d="M94.132 163.097C94.132 163.097 122.631 193.745 128.01 194.752" stroke="#000072" stroke-miterlimit="10"/>
<path d="M96.5839 170.073C96.5839 170.073 120.939 197.84 124.713 198.153" stroke="#000072" stroke-miterlimit="10"/>
<path d="M95.6816 164.155C95.6816 164.155 94.306 160.246 98.3227 161.1C98.3227 161.1 98.353 157.855 102.852 158.704C102.852 158.704 103.135 156.85 106.578 156.751" stroke="#000072" stroke-miterlimit="10"/>
<path d="M98.2012 171.899C98.2012 171.899 97.3085 169.115 99.9216 169.212C99.9216 169.212 98.9728 165.228 103.815 166.183C103.815 166.183 102.803 161.999 107.941 162.58C107.941 162.58 109.026 158.05 113.481 160.154C113.481 160.154 114.76 157.17 117.236 158.509" stroke="#000072" stroke-miterlimit="10"/>
<path d="M96.1133 169.001C96.1133 169.001 96.3546 166.963 97.7514 167.042C97.7514 167.042 97.4397 162.977 100.788 163.382C100.788 163.382 101.356 160.088 105.125 160.413C105.125 160.413 107.648 157.554 109.99 157.616" stroke="#000072" stroke-miterlimit="10"/>
<path d="M99.375 177.404C99.375 177.404 98.9557 175.451 101.483 175.574C101.483 175.574 100.582 172.738 103.574 173.097C103.574 173.097 102.555 169.11 107.796 169.56C107.796 169.56 106.323 165.031 112.031 165.841C112.031 165.841 112.549 161.647 116.593 162.737C116.593 162.737 116.096 160.695 119.095 161.304" stroke="#000072" stroke-miterlimit="10"/>
<path d="M101.561 181.437C101.561 181.437 101.208 178.056 104.41 178.79C104.41 178.79 103.524 175.407 106.926 176.412C106.926 176.412 107.493 172.698 110.815 172.948C110.815 172.948 111.513 167.942 115.648 168.824C115.648 168.824 116.601 164.786 119.852 165.5C119.852 165.5 119.432 164.303 122.021 163.866" stroke="#000072" stroke-miterlimit="10"/>
<path d="M103.547 184.073C103.547 184.073 102.862 180.738 106.795 181.385C106.795 181.385 107.304 178.675 109.772 179.269C109.772 179.269 109.821 175.043 114.003 175.63C114.003 175.63 114.807 171.449 119.244 171.916C119.244 171.916 119.692 168.523 123.491 168.69C123.491 168.69 122.535 167.23 125.349 167.194" stroke="#000072" stroke-miterlimit="10"/>
<path d="M106.055 186.525C106.055 186.525 105.596 183.537 108.656 183.797C108.656 183.797 108.903 180.351 112.065 181.483C112.065 181.483 111.492 177.49 116.744 178.091C116.744 178.091 117.381 174.108 121.726 174.016C121.726 174.016 121.9 170.437 125.982 170.792C125.982 170.792 126.028 169.034 128.202 169.471" stroke="#000072" stroke-miterlimit="10"/>
<path d="M107.412 189.098C107.412 189.098 106.915 185.232 109.992 184.801C109.992 184.801 111.869 182.386 113.646 183.067C113.646 183.067 116.011 178.833 118.666 179.948C118.666 179.948 121.046 175.429 124.077 176.317C124.077 176.317 125.648 173.106 128.739 173.509C128.739 173.509 129.426 171.432 131.561 171.805" stroke="#000072" stroke-miterlimit="10"/>
<path d="M134.924 175.209C134.924 175.209 130.889 172.929 131.697 176.382C131.697 176.382 126.196 175.658 127.436 179.605C127.436 179.605 121.746 178.239 122.096 183.126C122.096 183.126 116.666 182.616 117.05 186.514C117.05 186.514 112.976 184.795 114.187 188.73C114.187 188.73 112.487 188.807 112.869 190.372" stroke="#000072" stroke-miterlimit="10"/>
<path d="M137.349 177.624C137.349 177.624 133.844 176.031 134.521 179.281C134.521 179.281 130.052 178.499 129.948 182.248C129.948 182.248 125.38 181.98 125.476 186.147C125.476 186.147 120.497 185.65 121.134 189.986C121.134 189.986 117.9 190.068 118.186 193.275C118.186 193.275 116.61 193.515 116.814 195.877" stroke="#000072" stroke-miterlimit="10"/>
<path d="M138.888 179.631C138.888 179.631 135.691 177.169 136.628 181.567C136.628 181.567 133.816 181.149 132.478 185.124C132.478 185.124 128.674 185.429 127.826 188.43C127.826 188.43 124.891 188.85 123.841 191.619C123.783 191.771 123.731 191.93 123.686 192.096" stroke="#000072" stroke-miterlimit="10"/>
<path d="M123.726 191.931C123.726 191.931 121.188 192.777 120.926 195.627C120.926 195.627 119.198 196.475 119.302 198.924C119.405 201.374 118.789 198.791 118.789 198.791" stroke="#000072" stroke-miterlimit="10"/>
<path fill-rule="evenodd" clip-rule="evenodd" d="M98.5489 55.1603C126.581 42.8834 161.038 62.8762 171.803 87.4562C182.568 112.037 147.393 139.28 137.534 144.175C127.675 149.071 81.0042 155.658 70.239 131.078C59.4738 106.497 70.5168 67.4372 98.5489 55.1603Z" fill="#FF850B"/>
<path d="M99.0722 56.3549C71.1167 68.5982 61.0883 106.96 71.4236 130.558C74.1111 136.695 79.4026 141.255 87.1515 144.112C104.412 150.476 129.066 146.475 136.392 143.267C136.593 143.179 136.78 143.092 136.954 143.005C142.15 140.425 153.171 132.314 161.404 122.36C168.644 113.606 176.119 100.536 170.618 87.9743C159.92 63.5473 126.337 44.4141 99.0722 56.3549ZM137.468 145.644C129.61 149.085 104.445 153.258 86.2743 146.558C77.833 143.446 72.039 138.412 69.0539 131.596C63.6655 119.293 63.5032 103.022 68.6198 88.073C74.0521 72.2017 84.7699 59.7695 98.0252 53.9642C111.363 48.1227 127.054 48.957 142.207 56.3133C156.019 63.0184 167.526 74.4661 172.987 86.9365C177.765 97.846 174.45 110.674 163.4 124.034C154.926 134.279 143.512 142.663 138.113 145.344C137.914 145.443 137.698 145.543 137.468 145.644Z" fill="#000072"/>
<g opacity="0.5">
<g opacity="0.5">
<path opacity="0.5" fill-rule="evenodd" clip-rule="evenodd" d="M98.5423 55.1633C115.771 47.618 135.425 52.2645 150.515 62.6712C150.809 63.0923 151.1 63.5168 151.382 63.9498C138.088 55.5507 122.062 53.1917 107.2 57.1708C108.242 57.1201 108.937 57.2976 109.127 57.7317C109.659 58.9449 106.04 61.7021 101.044 63.89C96.0486 66.0777 91.5679 66.868 91.0366 65.6548C90.8465 65.2207 91.1863 64.5899 91.9311 63.8579C78.9282 72.0829 69.7957 85.4609 66.9531 100.926L66.8875 100.655C69.6883 81.7333 80.6565 62.9965 98.5423 55.1633Z" fill="white"/>
</g>
</g>
<path fill-rule="evenodd" clip-rule="evenodd" d="M173.777 95.592C175.167 117.734 146.311 139.816 137.532 144.175C128.843 148.49 91.5658 154.114 75.4705 138.563C71.5441 127.973 75.5087 122.872 87.3377 123.707C92.2019 124.05 97.1738 124.452 99.6402 121.408C113.717 104.026 125.607 100.934 141.408 103.115C148.797 104.136 152.149 96.3183 155.004 93.1321C164.097 82.9824 170.894 84.3192 173.777 95.592Z" fill="white"/>
<g opacity="0.300003">
<g opacity="0.300003">
<path opacity="0.300003" fill-rule="evenodd" clip-rule="evenodd" d="M169.707 83.2556C170.48 84.6363 171.182 86.0368 171.803 87.4534C172.199 88.3591 172.526 89.2677 172.802 90.1794L172.699 89.9158C178.499 106.926 151.244 133.79 134.074 142.515C119.741 149.799 83.3824 146.691 71.9559 134.037C72.0996 134.34 72.2496 134.64 72.3975 134.94C71.5744 133.745 70.8467 132.462 70.2391 131.075C69.7554 129.971 69.3176 128.836 68.9209 127.677L68.8927 127.404C87.6621 139.026 110.839 140.707 130.94 131.904C151.04 123.101 165.52 104.928 169.707 83.2556Z" fill="#000072"/>
</g>
</g>
<path fill-rule="evenodd" clip-rule="evenodd" d="M98.7506 104.973C96.8744 104.954 94.7521 104.475 92.3873 103.537C89.6018 104.912 88.6695 108.971 90.316 112.731C91.9989 116.574 95.7379 118.649 98.6671 117.366C101.597 116.083 102.607 111.928 100.924 108.085C100.381 106.846 99.625 105.791 98.7506 104.973Z" fill="#000072"/>
<path d="M140.397 78.9261C139.606 82.328 138.594 85.1345 137.359 87.3453C135.542 90.5978 132.757 92.2478 131.437 90.1202C132.825 89.3105 134.049 87.9568 135.108 86.0608C137.718 81.3866 138.105 78.9439 140.397 78.9261Z" fill="#000072"/>
<path fill-rule="evenodd" clip-rule="evenodd" d="M134.346 89.3838C135.605 87.9922 136.692 86.1077 137.607 83.7334C140.506 82.6186 144.121 84.6863 145.768 88.4459C147.451 92.2885 146.441 96.4436 143.511 97.7267C140.582 99.0098 136.843 96.9345 135.16 93.0919C134.617 91.8528 134.355 90.5814 134.346 89.3838Z" fill="#000072"/>
<path fill-rule="evenodd" clip-rule="evenodd" d="M137.498 89.9555C136.637 90.3323 136.269 91.3871 136.673 92.3112C137.078 93.2354 138.103 93.6796 138.964 93.3028C139.824 92.9262 140.192 91.8715 139.787 90.9473C139.383 90.0231 138.358 89.5788 137.498 89.9555Z" fill="white"/>
<path fill-rule="evenodd" clip-rule="evenodd" d="M117.89 102.11C121.683 100.448 125.664 101.17 126.781 103.721C127.899 106.273 125.73 109.688 121.936 111.349C118.143 113.01 114.163 112.289 113.045 109.737C111.928 107.186 114.097 103.771 117.89 102.11Z" fill="#000072"/>
<path d="M130.978 114.136C128.561 115.195 125.825 115.312 123.321 114.477C122.123 117.196 119.736 119.262 116.83 120.016C113.454 120.892 109.824 119.882 107.356 117.381C106.85 116.869 106.85 116.044 107.356 115.538C107.862 115.033 108.682 115.039 109.188 115.551C111.006 117.393 113.681 118.137 116.168 117.492C118.656 116.846 120.624 114.899 121.306 112.409C121.408 112.037 121.669 111.731 122.018 111.573C122.373 111.418 122.77 111.422 123.116 111.592C125.471 112.747 128.242 112.695 130.538 111.449C132.831 110.204 134.391 107.905 134.711 105.298C134.798 104.584 135.446 104.08 136.155 104.174C136.865 104.267 137.369 104.921 137.282 105.634C136.86 109.071 134.803 112.103 131.779 113.744C131.517 113.887 131.249 114.017 130.978 114.136Z" fill="#000072"/>
<path fill-rule="evenodd" clip-rule="evenodd" d="M122.556 112.762C126.063 114.049 128.931 113.993 131.16 112.596C138.586 127.949 122.621 134.183 116.5 118.753C119.586 117.847 121.604 115.851 122.556 112.762Z" fill="#000072"/>
<path d="M118.243 119.512C120.103 123.438 122.871 125.953 125.809 126.325C127.751 126.57 129.495 125.821 130.595 124.27C132.238 121.953 132.207 118.393 130.543 114.369C128.499 115.187 126.088 115.194 123.345 114.389C122.325 116.757 120.633 118.466 118.297 119.489C118.279 119.496 118.261 119.504 118.243 119.512ZM129.595 128.343C128.351 128.888 126.949 129.093 125.503 128.91C121.248 128.373 117.53 124.844 115.302 119.229L114.775 117.9L116.134 117.502C118.806 116.717 120.5 115.039 121.323 112.368L121.723 111.07L122.997 111.537C126.139 112.69 128.586 112.673 130.474 111.488L131.695 110.722L132.328 112.031C134.941 117.432 135.079 122.448 132.708 125.793C131.893 126.941 130.82 127.806 129.595 128.343Z" fill="#000072"/>
<path fill-rule="evenodd" clip-rule="evenodd" d="M126.468 121.338C124.358 122.262 122.823 124.149 122.338 126.412C126.985 129.26 132.07 127.113 132.956 121.721C130.971 120.564 128.562 120.421 126.468 121.338Z" fill="#FF0066"/>
<path d="M123.885 125.767C125.518 126.508 127.19 126.565 128.618 125.924C129.993 125.294 130.982 124.075 131.465 122.44C130.028 121.887 128.413 121.911 126.991 122.533C125.564 123.159 124.451 124.332 123.885 125.767ZM129.591 128.347C127.151 129.416 124.272 129.118 121.67 127.523L120.878 127.037L121.073 126.129C121.643 123.467 123.464 121.229 125.944 120.143C128.405 119.065 131.266 119.234 133.6 120.594L134.38 121.049L134.234 121.941C133.751 124.884 132.099 127.2 129.703 128.297C129.666 128.314 129.628 128.331 129.591 128.347Z" fill="#000072"/>
<path fill-rule="evenodd" clip-rule="evenodd" d="M155.081 64.9686C141.916 55.6155 129.032 51.0223 116.429 51.1905C124.375 12.5553 137.259 17.1481 155.081 64.9686Z" fill="#FF850B"/>
<path d="M118.025 49.8946C129.246 50.1048 140.79 54.032 152.411 61.5893C141.088 32.2731 133.87 26.3127 129.761 26.6083C126.625 26.8348 122.082 31.1055 118.025 49.8946ZM157.761 68.4679L154.335 66.0339C141.461 56.8872 128.715 52.3325 116.451 52.4959L114.829 52.5176L115.157 50.9209C118.792 33.2481 123.5 24.444 129.559 24.0089C137.288 23.4532 145.782 36.326 156.29 64.5206L157.761 68.4679Z" fill="#000072"/>
<path fill-rule="evenodd" clip-rule="evenodd" d="M126.575 79.2937C128.012 77.7993 129.896 77.2877 130.783 78.1513C131.67 79.015 131.225 80.9271 129.789 82.4218C128.352 83.9162 126.467 84.4274 125.58 83.5638C124.693 82.7001 125.139 80.7879 126.575 79.2937Z" fill="white"/>
<path fill-rule="evenodd" clip-rule="evenodd" d="M95.9736 92.6112C93.9007 92.6534 92.2471 93.6918 92.2802 94.9293C92.3134 96.1671 94.0206 97.1364 96.0932 97.0937C98.1655 97.0513 99.8193 96.0134 99.7862 94.7758C99.7531 93.5381 98.0459 92.5688 95.9736 92.6112Z" fill="white"/>
<path fill-rule="evenodd" clip-rule="evenodd" d="M95.6226 108.294C94.7622 108.671 94.3935 109.726 94.7982 110.65C95.203 111.574 96.2282 112.019 97.0886 111.642C97.9486 111.265 98.3172 110.21 97.9125 109.286C97.5077 108.362 96.4826 107.918 95.6226 108.294Z" fill="white"/>
<path fill-rule="evenodd" clip-rule="evenodd" d="M66.4345 104.513C68.4868 88.4946 73.848 75.9114 82.5178 66.7623C48.7347 46.4028 43.3736 58.9866 66.4345 104.513Z" fill="#FF850B"/>
<path d="M56.5865 59.1266C56.1102 59.3351 55.7241 59.5969 55.4112 59.8908C52.4075 62.7105 51.8931 72.0571 65.7608 100.259C68.0868 86.5937 73.0283 75.4466 80.4833 67.0563C66.1849 58.6294 59.595 57.809 56.5865 59.1266ZM67.1892 108.856L65.2854 105.097C51.689 78.2552 47.9877 63.2835 53.6372 57.9798C58.0636 53.8253 67.7279 56.3312 83.1823 65.6446L84.5785 66.486L83.4623 67.6638C75.0257 76.5667 69.7302 89.0231 67.7234 104.687L67.1892 108.856Z" fill="#000072"/>
<g opacity="0.649994">
<g opacity="0.649994">
<path opacity="0.649994" fill-rule="evenodd" clip-rule="evenodd" d="M80.439 69.1074C81.1118 68.3009 81.8082 67.5183 82.5268 66.7591C61.5888 54.1407 51.5737 54.1825 52.4702 66.8718C53.2545 57.3292 62.5765 58.0742 80.4372 69.107L80.439 69.1074Z" fill="white"/>
</g>
</g>
<path fill-rule="evenodd" clip-rule="evenodd" d="M68.3673 93.4179C70.0492 87.1654 72.498 81.3183 75.7146 75.8777C56.1202 59.7977 53.6707 65.6445 68.3673 93.4179Z" fill="#000072"/>
<path d="M60.6416 68.4083C60.5898 68.431 60.5575 68.4535 60.5394 68.4684C60.4283 68.56 59.5077 69.521 61.3341 75.002C62.5646 78.695 64.8112 83.7203 68.0226 89.9675C69.554 85.1308 71.5679 80.5101 74.0326 76.1819C63.8105 67.9222 61.1803 68.1724 60.6416 68.4083ZM68.7628 96.9364L67.2228 94.0255C56.0396 72.8916 56.7344 68.2257 58.8892 66.4486C61.4653 64.3213 66.7423 66.8412 76.5273 74.8712L77.3976 75.5853L76.8268 76.5504C73.686 81.8626 71.2597 87.6552 69.6154 93.7673L68.7628 96.9364Z" fill="#000072"/>
<g opacity="0.300003">
<g opacity="0.300003">
<path opacity="0.300003" fill-rule="evenodd" clip-rule="evenodd" d="M59.0765 68.4911C56.5032 73.0742 57.4569 82.0073 61.9376 95.2895C63.2916 98.1973 64.7896 101.272 66.4319 104.514C66.5461 103.228 66.6981 101.94 66.8912 100.653L66.9569 100.924C67.9578 94.8545 69.4665 89.3122 71.4816 84.2967C70.2763 87.1682 69.2563 90.138 68.421 93.2058C68.4046 93.266 68.3881 93.3257 68.3721 93.3867C68.3705 93.3918 68.3692 93.3974 68.3677 93.4041C68.3661 93.4093 68.3651 93.4142 68.3634 93.4193C61.2425 79.9624 58.1472 71.653 59.0765 68.4911ZM133.588 35.1375C138.702 36.3544 144.621 43.1127 151.343 55.4128C152.562 58.3798 153.806 61.5661 155.076 64.9713C154.053 64.1832 153.003 63.4218 151.926 62.6904L152.081 62.9225C146.942 59.5423 141.845 56.8927 136.793 54.9733C139.721 56.0345 142.595 57.2989 145.416 58.7653C145.471 58.7936 145.526 58.8224 145.582 58.8517C145.587 58.8544 145.592 58.8572 145.597 58.8602C145.603 58.8629 145.607 58.865 145.612 58.8678C140.551 44.5086 136.542 36.5987 133.588 35.1375Z" fill="#000072"/>
</g>
</g>
<g opacity="0.649994">
<g opacity="0.649994">
<path opacity="0.649994" fill-rule="evenodd" clip-rule="evenodd" d="M119.576 51.2494C118.527 51.197 117.479 51.1781 116.434 51.1919C121.359 27.2467 128.181 19.9138 136.899 29.1776C129.354 23.283 123.58 30.6399 119.577 51.2483L119.576 51.2494Z" fill="white"/>
</g>
</g>
<path fill-rule="evenodd" clip-rule="evenodd" d="M145.612 58.8678C139.876 55.8634 133.919 53.6981 127.739 52.3727C129.208 27.0676 135.167 29.2324 145.612 58.8678Z" fill="#000072"/>
<path d="M129.1 51.3432C133.953 52.4671 138.715 54.1205 143.307 56.2749C140.893 49.6781 138.723 44.6194 136.843 41.2106C134.054 36.1514 132.723 36.1761 132.581 36.1957C132.318 36.2328 130.044 36.9658 129.1 51.3432ZM147.926 61.5453L145.019 60.0224C139.413 57.0863 133.511 54.941 127.476 53.6466L126.379 53.4117L126.445 52.2878C127.179 39.652 128.902 34.0664 132.215 33.6133C134.982 33.2348 138.883 35.8881 146.832 58.439L147.926 61.5453Z" fill="#000072"/>
<path d="M56.587 59.1265C56.1108 59.335 55.7247 59.5968 55.4117 59.8907C52.408 62.7104 51.8934 72.0574 65.7611 100.259C68.0874 86.5937 73.0287 75.4464 80.4839 67.0562C66.1854 58.6293 59.5955 57.8089 56.587 59.1265ZM67.189 108.856L65.2853 105.097C51.6892 78.2553 47.9881 63.2833 53.6377 57.9798C58.0642 53.8252 67.7284 56.3311 83.1828 65.6446L84.579 66.486L83.4628 67.6638C75.0262 76.5666 69.7307 89.023 67.7233 104.687L67.189 108.856Z" fill="#000072"/>
<path d="M99.0722 56.3549C71.1167 68.5982 61.0883 106.96 71.4236 130.558C74.1111 136.695 79.4026 141.255 87.1515 144.112C104.412 150.476 129.066 146.475 136.392 143.267C136.593 143.179 136.78 143.092 136.954 143.005C142.15 140.425 153.171 132.314 161.404 122.36C168.644 113.606 176.119 100.536 170.618 87.9743C159.92 63.5473 126.337 44.4141 99.0722 56.3549ZM137.468 145.644C129.61 149.085 104.445 153.258 86.2743 146.558C77.833 143.446 72.039 138.412 69.0539 131.596C63.6655 119.293 63.5032 103.022 68.6198 88.073C74.0521 72.2017 84.7699 59.7695 98.0252 53.9642C111.363 48.1227 127.054 48.957 142.207 56.3133C156.019 63.0184 167.526 74.4661 172.987 86.9365C177.765 97.846 174.45 110.674 163.4 124.034C154.926 134.279 143.512 142.663 138.113 145.344C137.914 145.443 137.698 145.543 137.468 145.644Z" fill="#000072"/>
<g opacity="0.559998">
<g opacity="0.559998">
<path opacity="0.559998" fill-rule="evenodd" clip-rule="evenodd" d="M120.935 102.983C122.091 102.805 123.077 102.971 123.138 103.355C123.199 103.739 122.311 104.195 121.155 104.373C119.998 104.551 119.012 104.384 118.951 104C118.89 103.617 119.778 103.161 120.935 102.983Z" fill="white"/>
</g>
</g>
<path d="M87.8216 101.952C90.8582 103.678 93.6076 104.837 96.0698 105.428C99.6921 106.299 102.794 105.371 102.125 102.957C100.588 103.429 98.7636 103.411 96.6515 102.903C91.4467 101.652 89.389 100.279 87.8216 101.952Z" fill="#000072"/>
<path d="M118.025 49.8946C129.246 50.1048 140.79 54.032 152.411 61.5893C141.088 32.2731 133.87 26.3127 129.761 26.6083C126.625 26.8348 122.082 31.1055 118.025 49.8946ZM157.761 68.4679L154.335 66.0339C141.461 56.8872 128.715 52.3325 116.451 52.4959L114.829 52.5176L115.157 50.9209C118.792 33.2481 123.5 24.444 129.559 24.0089C137.288 23.4532 145.782 36.326 156.29 64.5206L157.761 68.4679Z" fill="#000072"/>
</svg>
